<svg version="1.1" id="Layer_1" xmlns="http://www.w3.org/2000/svg" xmlns:xlink="http://www.w3.org/1999/xlink" x="0px" y="0px" viewBox="0 0 500 500" style="width: 188px;" xml:space="preserve" data-imageid="fitness-1-54" imageName="Fitness 1" class="illustrations_image">
<style type="text/css">
	.st0_fitness-1-54{fill:#FFBE30;}
	.st1_fitness-1-54{opacity:0.32;fill:url(#SVGID_1_);enable-background:new    ;}
	.st2_fitness-1-54{fill:#FFB3EB;}
	.st3_fitness-1-54{opacity:0.3;fill:#050817;enable-background:new    ;}
	.st4_fitness-1-54{opacity:0.5;fill:#050817;enable-background:new    ;}
	.st5_fitness-1-54{fill:#68E1FD;}
	.st6_fitness-1-54{opacity:0.32;fill:url(#SVGID_00000097469311647232977420000000258842862762164631_);enable-background:new    ;}
	.st7_fitness-1-54{fill:#DD654A;}
	.st8_fitness-1-54{fill:#5FAD00;}
	.st9_fitness-1-54{fill:#FFBEB3;}
	.st10_fitness-1-54{fill:#050817;}
	.st11_fitness-1-54{fill:#047877;}
	.st12_fitness-1-54{opacity:0.32;fill:url(#SVGID_00000173121307238656603010000009447759293223216771_);enable-background:new    ;}
</style>
<path id="field_fitness-1-54" class="st0_fitness-1-54" d="M243.2,410.7L29.1,284.2c-6.8-3.8-12.7-10.1-6-14.2l214.9-123.8c3.2-2,8.1-3.3,11.4-1.4l224.8,130.4&#10;&#9;c6.8,4,8,15,1.2,19L271.4,410.5C262.7,415.6,252,415.7,243.2,410.7z"/>
<g id="dumbell_fitness-1-54">
	
		<linearGradient id="SVGID_1_-fitness-1-54" gradientUnits="userSpaceOnUse" x1="418.6768" y1="191.2253" x2="388.1967" y2="230.1353" gradientTransform="matrix(1 0 0 -1 0 502)">
		<stop offset="0" style="stop-color:#FFBE30;stop-opacity:3.000000e-02"/>
		<stop offset="0.99" style="stop-color:#C1272D"/>
	</linearGradient>
	<path class="st1_fitness-1-54" d="M370.5,260c-7.6,4.4-15.1,9-22.4,13.9l77.5,54.3l30.1-23.2L370.5,260z"/>
	<path class="st2_fitness-1-54" d="M375.9,245.3l-6.3-3.6c-5.2-3-13.9,2.1-19.3,11.5c-5.4,9.4-5.6,19.5-0.3,22.5l6.3,3.6l2.5-4.2&#10;&#9;&#9;c3.8-2,7.7-5.8,10.6-10.9s4.3-10.4,4.1-14.6L375.9,245.3z"/>
	<path class="st3_fitness-1-54" d="M375.9,245.3l-6.3-3.6c-5.2-3-13.9,2.1-19.3,11.5c-5.4,9.4-5.6,19.5-0.3,22.5l6.3,3.6l2.5-4.2&#10;&#9;&#9;c3.8-2,7.7-5.8,10.6-10.9s4.3-10.4,4.1-14.6L375.9,245.3z"/>
	<ellipse transform="matrix(0.5 -0.866 0.866 0.5 -44.1122 448.2396)" class="st2_fitness-1-54" cx="366.1" cy="262.3" rx="19.6" ry="11"/>
	<ellipse transform="matrix(0.5 -0.866 0.866 0.5 -44.1122 448.2396)" class="st4_fitness-1-54" cx="366.1" cy="262.3" rx="19.6" ry="11"/>
	<path class="st5_fitness-1-54 targetColor" d="M405.8,277.9L370.3,259c-0.5-0.3-1-0.4-1.5-0.3c-1.8,0.1-5.5,0.9-5.8,6c-0.1,1.1,0.5,2.1,1.5,2.6l36.3,19.5&#10;&#9;&#9;c1.3,0.7,3,0.3,3.8-1.1l2.3-3.9c0.8-1.3,0.4-3.1-1-3.9C405.9,278,405.8,277.9,405.8,277.9z" style="fill: rgb(0, 76, 76);"/>
	<path class="st2_fitness-1-54" d="M427.9,273l-6.3-3.6c-5.2-3-13.9,2.1-19.3,11.5s-5.6,19.5-0.3,22.5l6.3,3.6l2.5-4.2c3.8-2,7.7-5.8,10.6-10.9&#10;&#9;&#9;s4.3-10.4,4.1-14.6L427.9,273z"/>
	<path class="st4_fitness-1-54" d="M427.9,273l-6.3-3.6c-5.2-3-13.9,2.1-19.3,11.5s-5.6,19.5-0.3,22.5l6.3,3.6l2.5-4.2c3.8-2,7.7-5.8,10.6-10.9&#10;&#9;&#9;s4.3-10.4,4.1-14.6L427.9,273z"/>
	<ellipse transform="matrix(0.4983 -0.867 0.867 0.4983 -39.619 508.0876)" class="st2_fitness-1-54" cx="419.2" cy="288.3" rx="19.7" ry="11"/>
	<ellipse transform="matrix(0.4983 -0.867 0.867 0.4983 -39.619 508.0876)" class="st3_fitness-1-54" cx="419.2" cy="288.3" rx="19.7" ry="11"/>
	<path class="st2_fitness-1-54" d="M426.4,283.9l-3-1.7c-2.5-1.5-6.6,1-9.2,5.5s-2.6,9.3-0.1,10.7l3,1.7l1.2-2c4.2-2.6,6.9-7.2,7-12.2&#10;&#9;&#9;L426.4,283.9z"/>
	<path class="st4_fitness-1-54" d="M426.4,283.9l-3-1.7c-2.5-1.5-6.6,1-9.2,5.5s-2.6,9.3-0.1,10.7l3,1.7l1.2-2c4.2-2.6,6.9-7.2,7-12.2&#10;&#9;&#9;L426.4,283.9z"/>
	<ellipse transform="matrix(0.4983 -0.867 0.867 0.4983 -39.604 512.2999)" class="st2_fitness-1-54" cx="422.8" cy="290.4" rx="9.4" ry="5.3"/>
</g>
<g id="plant_fitness-1-54">
	
		<linearGradient id="SVGID_00000058582085117874453690000001516757459025808307_-fitness-1-54" gradientUnits="userSpaceOnUse" x1="126.628" y1="183.8684" x2="96.768" y2="221.9884" gradientTransform="matrix(1 0 0 -1 0 502)">
		<stop offset="0" style="stop-color:#FFBE30;stop-opacity:3.000000e-02"/>
		<stop offset="0.99" style="stop-color:#C1272D"/>
	</linearGradient>
	<path style="opacity:0.32;fill:url(#SVGID_00000058582085117874453690000001516757459025808307_);enable-background:new    ;" d="&#10;&#9;&#9;M79.5,268.4c-7.5,4.3-14.8,8.8-21.9,13.6l76,53.1l29.4-22.7L79.5,268.4z"/>
	<polyline class="st5_fitness-1-54 targetColor" points="57.5,260.4 57.5,279.5 88.3,279.5 88.3,260.4 &#9;" style="fill: rgb(0, 76, 76);"/>
	<ellipse class="st7_fitness-1-54" cx="72.9" cy="260.4" rx="15.4" ry="7.6"/>
	<ellipse class="st5_fitness-1-54 targetColor" cx="72.9" cy="280.2" rx="15.4" ry="7.6" style="fill: rgb(0, 76, 76);"/>
	<path class="st8_fitness-1-54" d="M90.2,216.2c-3.2-1.3-7.7-5.7-11.7-5.6c-1.5,3.7-1.9,7.9-2.4,11.7c-0.7,6.5-0.9,13-0.4,19.5&#10;&#9;&#9;c0.1,1.4,0.2,2.9,0.4,4.3c0,0.4,0.1,0.8,0.3,1.2v15.1c0,0.3,0.2,0.5,0.5,0.5s0.5-0.2,0.5-0.5v-14.5c1.5-0.5,3-1.2,4.4-2&#10;&#9;&#9;c2.9-1.8,5.1-4.6,6.2-7.8c2.5-6.9,0.9-14.6,3.3-21.5C90.8,216.5,90.5,216.4,90.2,216.2z"/>
	<path class="st4_fitness-1-54" d="M90.2,216.2c-3.2-1.3-7.7-5.7-11.7-5.6c-1.5,3.7-1.9,7.9-2.4,11.7c-0.7,6.5-0.9,13-0.4,19.5&#10;&#9;&#9;c0.1,1.4,0.2,2.9,0.4,4.3c0,0.4,0.1,0.8,0.3,1.2v15.1c0,0.3,0.2,0.5,0.5,0.5s0.5-0.2,0.5-0.5v-14.5c1.5-0.5,3-1.2,4.4-2&#10;&#9;&#9;c2.9-1.8,5.1-4.6,6.2-7.8c2.5-6.9,0.9-14.6,3.3-21.5C90.8,216.5,90.5,216.4,90.2,216.2z"/>
	<path class="st8_fitness-1-54" d="M83.5,204.9c-1.8,1.1-3.4,2.6-4.4,4.5c-0.3,0.4-0.5,0.9-0.7,1.3c0,0.1-0.1,0.2-0.1,0.3l0,0&#10;&#9;&#9;c-0.3,0.8-0.5,1.6-0.7,2.4c0.4-0.6,1-1.1,1.6-1.3c0.8-0.4,1.7-0.4,2.6-0.2c0.8,0.3,1.6,0.7,2.3,1.3c1.1,0.7,2.2,1.4,3.2,2.1&#10;&#9;&#9;c5.1,3.2,11.9,3.6,15.8-1.1c0-0.2,0.1-0.4,0.1-0.6C103.9,210.3,94.8,198.4,83.5,204.9z"/>
	<path class="st4_fitness-1-54" d="M100.9,216.1c0.2-0.1,0.4-0.3,0.6-0.4c0-0.1,0-0.3-0.1-0.4c-3.1-3.2-6.4-6.3-10.6-7.8c-3-1.1-6.3-1.5-9.5-0.9&#10;&#9;&#9;c-0.3,0.4-0.7,0.8-1,1.2c3.4-1.1,7.8-0.4,10.9,0.9c3.7,1.6,6.7,4.4,9.5,7.3C100.7,216,100.8,216.1,100.9,216.1z"/>
	<path class="st8_fitness-1-54" d="M49.3,223c-4.5,2.4-7.2,7.2-6.9,12.3c0.4,9.1,15.3,0.2,19.3-7.4s4.6,3.3,4.6,3.3"/>
	<path class="st4_fitness-1-54" d="M49.3,223c-4.5,2.4-7.2,7.2-6.9,12.3c0.4,9.1,15.3,0.2,19.3-7.4s4.6,3.3,4.6,3.3"/>
	<path class="st8_fitness-1-54" d="M62.7,219.8c-2.8,0-5.6,0.3-8.3,1.2c-1.8,0.4-3.5,1.1-5.2,2c0.9,0.6,1.9,1.2,3,1.6c1.9,0.8,3.8,1.7,4.8,3.5&#10;&#9;&#9;c0.2,0.4,0.4,0.9,0.6,1.4c0.9,3,0.1,6.6,1.3,9.6s3.7,5.6,7.3,5.9c4.2,0.2,6.1-3.8,7-7.3s2-8.3,0.6-11.9&#10;&#9;&#9;C72.3,221.5,66.7,220,62.7,219.8z"/>
	<path class="st8_fitness-1-54" d="M68.3,234c-1.8-5.7-5.5-11.1-11-13.7h-0.2l-0.3,0.1c-0.3,0.1-0.7,0.2-1,0.3c6.4,2.4,10.4,8.7,12,15.1&#10;&#9;&#9;c2.1,8.2,1.4,17.1,1.4,25.6c0,0.2,0.2,0.4,0.4,0.4c0.2,0,0.4-0.2,0.4-0.4C70.1,252.3,71,242.7,68.3,234z"/>
	<path class="st4_fitness-1-54" d="M68.3,234c-1.8-5.7-5.5-11.1-11-13.7h-0.2l-0.3,0.1c-0.3,0.1-0.7,0.2-1,0.3c6.4,2.4,10.4,8.7,12,15.1&#10;&#9;&#9;c2.1,8.2,1.4,17.1,1.4,25.6c0,0.2,0.2,0.4,0.4,0.4c0.2,0,0.4-0.2,0.4-0.4C70.1,252.3,71,242.7,68.3,234z"/>
</g>
<g id="person_fitness-1-54">
	<polygon class="st5_fitness-1-54 targetColor" points="367.9,325.1 294.4,367.4 115.1,263.7 188.6,220.9 &#9;" style="fill: rgb(0, 76, 76);"/>
	<path class="st9_fitness-1-54" d="M252.6,186.7c0,0-25,8.6-28,13.7s-3.4,34.4-9.8,50.4c0.9,2.4,3.5,3.6,5.9,2.9c4.5-1.2,11.6-27,13-34.6&#10;&#9;&#9;s2.2-10.2,2.2-10.2l23.5-3.1L252.6,186.7z"/>
	<path class="st10_fitness-1-54" d="M216.5,251.2c0,0,1.4-4.7,0.2-6.7s-2.3-0.4-3.2,1.4s-1.1,2.8-1.7,3.5s-5.8,7.2-8.4,7.4s-8.6,0.7-7.7,4.7&#10;&#9;&#9;s8.4,6,14.7,4.8s8-5.1,13.4-3.4s7.4-1.1,8.3-2.9s-5.4-11.1-5.4-11.1S221.2,252.9,216.5,251.2z"/>
	<path class="st9_fitness-1-54" d="M279.6,226c0,0,5,31.4,5.9,35.8s2.9,46.6,2.5,49.4s3.7,14.3,9.3,0.3c0,0,4.4-40.4,4-46.1s1.1-40.4,0.5-45.4"/>
	<path class="st11_fitness-1-54" d="M282.8,277.5c6.1,1.8,11.6,2.4,17.7,0c0.9-0.5,0.7-4.2,0.8-5c0.3-3.8,0.4-7.6,0.5-11.4c0.4-12,0-24.1,1.6-36&#10;&#9;&#9;c0.9-6.9,0.8-13.9-0.1-20.8c-0.5-3.7-1.3-7.4-2.5-10.9c-0.6-1.7-1.3-3.4-2.2-5c-0.4-0.7-2.1-4.5-2.9-4.6l-27-4l-41.6,15.8&#10;&#9;&#9;c0,0,0,8.5,10.1,15.6c0,0,28.3-1.9,34.8-3.4C272,207.8,280.9,271.6,282.8,277.5z"/>
	<path class="st9_fitness-1-54" d="M277.8,118.8c0,0-14.3-2.8-17.4-5.3s-7.9-7-13.7-9.7s-16.8-4.8-19.6-7.5c-3.5-3.4-7.2-6.5-11.2-9.3l-6.2-1.3&#10;&#9;&#9;c0,0,0.1,2.3,3.1,3.3s4.5,2.1,5.3,3.7s2,3,0.8,3.2s-6.2-1-6.2,0.2s4.6,2.1,6.8,3s12.9,9.3,19.4,12.6s23.2,14.1,24.4,16.6&#10;&#9;&#9;c0.9,2,1.6,4.2,2.1,6.3c0,0,29,16.5,32.8,16.7s7.3-1.7,10.1,0s17.3,6.1,22.8,8.9s14.4,7.2,19,8.1s7.8,2,9.6,3.4s3.4,4.1,4.9,5.9&#10;&#9;&#9;s2.7,3.3,3.1,2.8s-0.9-3-1.7-5s-0.9-2.9,0.6-2.9s10.4,4.5,11.9,3.9s-5.1-6.2-6.9-8.2s-11.2-3-13-4s-31.4-15.6-34.3-18.2&#10;&#9;&#9;s-17.2-12.2-21.1-15.3S285.7,121.2,277.8,118.8z"/>
	<path class="st5_fitness-1-54 targetColor" d="M294.5,178.1c0-2.9,0.3-5.7,0.9-8.5c1.2-7.1,2.4-10.9,2.8-18.1c-1-1.8-0.5-7.2,0.1-10.2&#10;&#9;&#9;c1.5-7.9,5.2-9.9,5.2-9.9c-0.7-0.8-1.5-1.6-2.5-2.1c-0.9-0.4-9,3.4-11.2,12.4c0,0-15.9-4.5-17.1-6.7s4.5-14,8.4-14.7s-4-3-4-3&#10;&#9;&#9;s-13.9,14.5-15,23.2s4.3,36,6.2,40.4s14.1,12.3,27.7,4.1C295.2,182.5,294.7,180.3,294.5,178.1z" style="fill: rgb(0, 76, 76);"/>
	<path class="st10_fitness-1-54" d="M306.9,94.1c-0.9-4.3-5-7-9.3-6.1c0,0-0.1,0-0.1,0c-3.3,0.5-6.1,2.4-7.8,5.3c-7.2-2.5-15.3,1-18.3,5.6&#10;&#9;&#9;c-3.8,5.7,0.6,9.7,0.6,9.7l13.8,13.8c2.2-0.7,4.4-1.5,6.5-2.6c3.6-1.9,6.2-9.1,5.9-15.4c1.4,0.2,2.8,0,4.1-0.6&#10;&#9;&#9;C305.9,102.2,307.9,98.1,306.9,94.1z"/>
	<path class="st9_fitness-1-54" d="M272,108.5c0,0,1.5,18.5,6.6,19.4c5.1,0.9,8.6-3.2,9.4-5.1c0.5-1.1,0.7-2.2,0.7-3.3c0,0,4.6-2.3,3.6-5&#10;&#9;&#9;s-3.7,1.1-4.5,0.8s-2.9-0.8-3.2-4.4S276.7,111.4,272,108.5z"/>
	<path class="st10_fitness-1-54" d="M284.2,313c0,0-0.4-4.4,2.5-4.4s6.2,0.9,6.4,3.3c0.1,1.7,0.1,3.4,0,5.1c0,0,4.4-10.2,5.3-10s1.6,3.6,1.5,5&#10;&#9;&#9;s-2.4,11.6-3.3,13.6s-6,8.9-12.4,9.3s-9.3-3.8-8-6.6S283.5,320.7,284.2,313z"/>
	<path class="st11_fitness-1-54" d="M227.1,195.6c0,0-5.1,1.1-6.1,13.3l13.1,8.3l3.1-6"/>
	<path class="st7_fitness-1-54" d="M293.8,279l1.8-0.1c2.2-30.6,0.8-61.4-4.4-91.7c-0.2-1.1-1.9-0.7-1.7,0.5C294.6,217.8,296,248.5,293.8,279z"/>
	
		<linearGradient id="SVGID_00000180326653749802452940000012302991794435683004_-fitness-1-54" gradientUnits="userSpaceOnUse" x1="287.3062" y1="166.2605" x2="256.8162" y2="205.1805" gradientTransform="matrix(1 0 0 -1 0 502)">
		<stop offset="0" style="stop-color:#68E1FD;stop-opacity:3.000000e-02"/>
		<stop offset="0.99" style="stop-color:#808080"/>
	</linearGradient>
	<path style="opacity:0.32;fill:url(#SVGID_00000180326653749802452940000012302991794435683004_);enable-background:new    ;" d="&#10;&#9;&#9;M228.5,279.1c-0.2-0.1-0.4-0.2-0.6-0.3c-4.4-0.3-8.9,0.7-12.9,2.7c-7.3,4-3.4,11.2,0.7,16.4l78.8,55.1l30.1-23.2L228.5,279.1z"/>
</g>
</svg>