<?xml version="1.0" standalone="no"?>
<!DOCTYPE svg PUBLIC "-//W3C//DTD SVG 20010904//EN"
 "http://www.w3.org/TR/2001/REC-SVG-20010904/DTD/svg10.dtd">
<svg version="1.0" xmlns="http://www.w3.org/2000/svg"
 width="128.000000pt" height="128.000000pt" viewBox="0 0 128.000000 128.000000"
 preserveAspectRatio="xMidYMid meet">

<g transform="translate(0.000000,128.000000) scale(0.100000,-0.100000)"
fill="#004c4c" stroke="none">
<path d="M859 1263 c-39 -24 -59 -65 -59 -121 0 -77 56 -132 135 -132 132 0
184 166 79 249 -33 26 -116 28 -155 4z"/>
<path d="M393 1038 c-128 -95 -145 -116 -122 -156 27 -50 59 -42 171 42 l100
75 62 -31 c33 -17 62 -32 64 -33 1 -1 -37 -65 -85 -141 -72 -115 -87 -146 -88
-180 0 -22 6 -49 14 -58 8 -9 71 -56 140 -103 69 -47 127 -87 129 -89 2 -1
-29 -65 -67 -143 -90 -178 -92 -227 -9 -219 32 3 36 8 120 173 48 94 87 183
88 199 0 23 -18 46 -87 117 -71 73 -85 92 -77 107 26 52 110 192 115 192 4 0
32 -34 63 -75 l56 -75 138 0 c151 0 162 4 162 55 0 49 -13 55 -130 55 l-106 0
-66 93 c-37 51 -75 100 -85 110 -32 28 -331 167 -361 167 -20 0 -62 -25 -139
-82z"/>
<path d="M422 495 l-32 -65 -154 0 c-170 0 -186 -5 -186 -59 0 -49 10 -51 215
-51 l191 0 64 65 c35 35 62 66 59 68 -2 2 -25 18 -51 35 -26 18 -50 41 -53 52
-3 11 -10 20 -14 20 -3 0 -21 -29 -39 -65z"/>
</g>
</svg>
