<svg id="_0532_sending_emails" xmlns="http://www.w3.org/2000/svg" viewBox="0 0 500 500" data-imageid="sending-emails-81" imageName="Sending Emails" class="illustrations_image" style="width: 188px;"><defs><style>.cls-1_sending-emails-81{fill:#a5a5a5;}.cls-2_sending-emails-81,.cls-3_sending-emails-81{fill:#e6e6e6;}.cls-3_sending-emails-81{opacity:.3;}.cls-4_sending-emails-81{fill:#24285b;}.cls-5_sending-emails-81{fill:#000001;opacity:.08;}.cls-6_sending-emails-81{fill:#ffd200;}.cls-7_sending-emails-81{fill:#68e1fd;}</style></defs><path id="bg_sending-emails-81" class="cls-3_sending-emails-81" d="m389.36,51.53c50.35,20.19,98.54,74.9,100.46,145.07,1.92,69.93-14.23,141.51-105.53,168.5-85.76,25.36-289.7,33.21-344.66-54.41C-12.19,228.09,3.19,94.76,92.52,52.77c62.62-29.43,198.51-40.68,296.83-1.23Z"/><g id="laptop_sending-emails-81"><rect class="cls-7_sending-emails-81 targetColor" x="55.26" y="189.91" width="391.83" height="247.99" style="fill: rgb(185, 255, 102);"/><rect class="cls-4_sending-emails-81" x="89.25" y="214.26" width="323.85" height="199.31"/><rect class="cls-7_sending-emails-81 targetColor" x="37.21" y="437.91" width="431.67" height="35.98" style="fill: rgb(185, 255, 102);"/><rect class="cls-5_sending-emails-81" x="37.21" y="437.91" width="431.67" height="35.98"/><rect class="cls-5_sending-emails-81" x="217.54" y="437.91" width="71.01" height="17.99"/><polygon class="cls-5_sending-emails-81" points="360.99 266.85 360.99 284.22 360.99 367.64 447.1 367.64 447.1 284.22 447.1 266.85 360.99 266.85"/><rect class="cls-5_sending-emails-81" x="55.08" y="266.38" width="56.16" height="63.99"/></g><g id="mail1_sending-emails-81"><polygon class="cls-6_sending-emails-81" points="266.2 414.85 285.61 407.42 256.14 330.38 116.01 383.99 127.81 414.85 266.2 414.85"/><polygon class="cls-5_sending-emails-81" points="266.2 414.85 285.61 407.42 220.28 388.26 195.15 380.9 181.36 403.16 174.11 414.85 266.2 414.85"/><polygon class="cls-5_sending-emails-81" points="256.14 330.38 116.01 384 206.49 410.52 256.14 330.38"/></g><g id="mail2_sending-emails-81"><rect class="cls-6_sending-emails-81" x="160.57" y="221.79" width="151.09" height="83.06" transform="translate(-58.58 67.77) rotate(-14.55)"/><polygon class="cls-5_sending-emails-81" points="319.67 284.53 173.43 322.5 232.1 247.86 319.67 284.53"/><polygon class="cls-5_sending-emails-81" points="298.8 204.14 152.56 242.1 240.13 278.78 298.8 204.14"/></g><g id="mail3_sending-emails-81"><rect class="cls-6_sending-emails-81" x="266.75" y="111.15" width="151.09" height="83.06" transform="translate(91.05 -125.44) rotate(23.87)"/><polygon class="cls-5_sending-emails-81" points="394.58 221.23 256.41 160.09 348.76 138.07 394.58 221.23"/><polygon class="cls-5_sending-emails-81" points="428.18 145.27 290.01 84.13 335.83 167.29 428.18 145.27"/></g><g id="__sending-emails-81"><rect class="cls-2_sending-emails-81" x="370.36" y="275.54" width="108.89" height="83.42"/><rect class="cls-1_sending-emails-81" x="370.36" y="258.16" width="108.89" height="17.38"/><path class="cls-1_sending-emails-81" d="m444.79,332.55h6.38c-2,4.05-5.06,7.22-9.19,9.52-4.73,2.63-10.5,3.95-17.3,3.95s-12.27-1.11-17.06-3.34c-4.79-2.23-8.35-5.51-10.69-9.85-2.33-4.34-3.5-9.07-3.5-14.17,0-5.61,1.33-10.83,3.98-15.67,2.65-4.84,6.29-8.47,10.9-10.9s9.88-3.64,15.81-3.64c5.03,0,9.5.98,13.41,2.93,3.91,1.96,6.9,4.73,8.97,8.34s3.1,7.54,3.1,11.81c0,5.09-1.57,9.69-4.7,13.8-3.93,5.19-8.97,7.78-15.12,7.78-1.66,0-2.9-.29-3.74-.87s-1.4-1.43-1.68-2.54c-2.35,2.28-5.07,3.41-8.14,3.41-3.31,0-6.06-1.14-8.25-3.43s-3.28-5.32-3.28-9.12c0-4.69,1.32-8.97,3.95-12.84,3.19-4.71,7.28-7.06,12.27-7.06,3.55,0,6.18,1.36,7.87,4.07l.75-3.32h7.9l-4.52,21.46c-.28,1.36-.42,2.24-.42,2.63,0,.5.11.87.34,1.12s.5.37.82.37c.96,0,2.2-.58,3.71-1.74,2.04-1.52,3.68-3.55,4.94-6.11s1.89-5.2,1.89-7.93c0-4.91-1.78-9.02-5.33-12.32s-8.51-4.95-14.88-4.95c-5.41,0-9.99,1.1-13.76,3.31s-6.6,5.31-8.5,9.31c-1.91,4-2.86,8.17-2.86,12.5s1.06,8.04,3.19,11.49c2.13,3.45,5.11,5.97,8.95,7.56,3.84,1.59,8.24,2.38,13.19,2.38s8.87-.66,12.3-1.99,6.2-3.32,8.29-5.97Zm-32.36-12.3c0,2.53.51,4.4,1.54,5.6,1.03,1.2,2.3,1.8,3.82,1.8,1.14,0,2.21-.28,3.2-.84.76-.4,1.51-1.03,2.25-1.89,1.06-1.22,1.97-2.99,2.74-5.33s1.15-4.51,1.15-6.53c0-2.26-.52-3.99-1.57-5.19s-2.37-1.81-3.97-1.81c-1.72,0-3.3.66-4.76,1.99-1.46,1.33-2.55,3.22-3.29,5.67-.74,2.45-1.11,4.63-1.11,6.53Z"/></g><g id="money_sending-emails-81"><rect class="cls-2_sending-emails-81" x="35.57" y="256.46" width="68.35" height="63.99"/><polygon class="cls-1_sending-emails-81" points="84.18 282.89 69.74 267.97 55.29 282.89 61.91 282.89 61.91 308.95 77.56 308.95 77.56 282.89 84.18 282.89"/></g></svg>