<?xml version="1.0" encoding="UTF-8"?>
<svg xmlns="http://www.w3.org/2000/svg" xmlns:xlink="http://www.w3.org/1999/xlink" width="250px" height="250px" viewBox="0 0 250 250" version="1.1">
<defs>
<filter id="alpha" filterUnits="objectBoundingBox" x="0%" y="0%" width="100%" height="100%">
  <feColorMatrix type="matrix" in="SourceGraphic" values="0 0 0 0 1 0 0 0 0 1 0 0 0 0 1 0 0 0 1 0"/>
</filter>
<mask id="mask0">
  <g filter="url(#alpha)">
<rect x="0" y="0" width="250" height="250" style="fill:rgb(0%,0%,0%);fill-opacity:0.321569;stroke:none;"/>
  </g>
</mask>
<clipPath id="clip1">
  <rect x="0" y="0" width="250" height="250"/>
</clipPath>
<g id="surface5" clip-path="url(#clip1)">
<path style=" stroke:none;fill-rule:nonzero;fill:rgb(0%,0%,0%);fill-opacity:1;" d="M 185.25 130 C 181.449219 132.199219 177.699219 134.5 174.050781 136.949219 L 212.800781 164.101562 L 227.851562 152.5 Z M 185.25 130 "/>
</g>
<mask id="mask1">
  <g filter="url(#alpha)">
<rect x="0" y="0" width="250" height="250" style="fill:rgb(0%,0%,0%);fill-opacity:0.301961;stroke:none;"/>
  </g>
</mask>
<clipPath id="clip2">
  <rect x="0" y="0" width="250" height="250"/>
</clipPath>
<g id="surface8" clip-path="url(#clip2)">
<path style=" stroke:none;fill-rule:nonzero;fill:rgb(1.960784%,3.137255%,9.019608%);fill-opacity:1;" d="M 187.949219 122.648438 L 184.800781 120.851562 C 182.199219 119.351562 177.851562 121.898438 175.148438 126.601562 C 172.449219 131.300781 172.351562 136.351562 175 137.851562 L 178.148438 139.648438 L 179.398438 137.550781 C 181.300781 136.550781 183.25 134.648438 184.699219 132.101562 C 186.148438 129.550781 186.851562 126.898438 186.75 124.800781 Z M 187.949219 122.648438 "/>
</g>
<mask id="mask2">
  <g filter="url(#alpha)">
<rect x="0" y="0" width="250" height="250" style="fill:rgb(0%,0%,0%);fill-opacity:0.501961;stroke:none;"/>
  </g>
</mask>
<clipPath id="clip3">
  <rect x="0" y="0" width="250" height="250"/>
</clipPath>
<g id="surface11" clip-path="url(#clip3)">
<path style=" stroke:none;fill-rule:nonzero;fill:rgb(1.960784%,3.137255%,9.019608%);fill-opacity:1;" d="M 187.945312 122.6875 C 185.3125 121.167969 180.988281 123.738281 178.28125 128.421875 C 175.574219 133.109375 175.515625 138.140625 178.144531 139.660156 C 180.773438 141.179688 185.101562 138.609375 187.808594 133.921875 C 190.515625 129.238281 190.574219 124.207031 187.945312 122.6875 Z M 187.945312 122.6875 "/>
</g>
<mask id="mask3">
  <g filter="url(#alpha)">
<rect x="0" y="0" width="250" height="250" style="fill:rgb(0%,0%,0%);fill-opacity:0.501961;stroke:none;"/>
  </g>
</mask>
<clipPath id="clip4">
  <rect x="0" y="0" width="250" height="250"/>
</clipPath>
<g id="surface14" clip-path="url(#clip4)">
<path style=" stroke:none;fill-rule:nonzero;fill:rgb(1.960784%,3.137255%,9.019608%);fill-opacity:1;" d="M 213.949219 136.5 L 210.800781 134.699219 C 208.199219 133.199219 203.851562 135.75 201.148438 140.449219 C 198.449219 145.148438 198.351562 150.199219 201 151.699219 L 204.148438 153.5 L 205.398438 151.398438 C 207.300781 150.398438 209.25 148.5 210.699219 145.949219 C 212.148438 143.398438 212.851562 140.75 212.75 138.648438 Z M 213.949219 136.5 "/>
</g>
<mask id="mask4">
  <g filter="url(#alpha)">
<rect x="0" y="0" width="250" height="250" style="fill:rgb(0%,0%,0%);fill-opacity:0.301961;stroke:none;"/>
  </g>
</mask>
<clipPath id="clip5">
  <rect x="0" y="0" width="250" height="250"/>
</clipPath>
<g id="surface17" clip-path="url(#clip5)">
<path style=" stroke:none;fill-rule:nonzero;fill:rgb(1.960784%,3.137255%,9.019608%);fill-opacity:1;" d="M 214.519531 135.609375 C 211.886719 134.097656 207.554688 136.695312 204.84375 141.410156 C 202.132812 146.125 202.070312 151.175781 204.703125 152.691406 C 207.335938 154.203125 211.671875 151.609375 214.378906 146.890625 C 217.089844 142.175781 217.152344 137.125 214.519531 135.609375 Z M 214.519531 135.609375 "/>
</g>
<mask id="mask5">
  <g filter="url(#alpha)">
<rect x="0" y="0" width="250" height="250" style="fill:rgb(0%,0%,0%);fill-opacity:0.501961;stroke:none;"/>
  </g>
</mask>
<clipPath id="clip6">
  <rect x="0" y="0" width="250" height="250"/>
</clipPath>
<g id="surface20" clip-path="url(#clip6)">
<path style=" stroke:none;fill-rule:nonzero;fill:rgb(1.960784%,3.137255%,9.019608%);fill-opacity:1;" d="M 213.199219 141.949219 L 211.699219 141.101562 C 210.449219 140.351562 208.398438 141.601562 207.101562 143.851562 C 205.800781 146.101562 205.800781 148.5 207.050781 149.199219 L 208.550781 150.050781 L 209.148438 149.050781 C 211.25 147.75 212.601562 145.449219 212.648438 142.949219 Z M 213.199219 141.949219 "/>
</g>
<mask id="mask6">
  <g filter="url(#alpha)">
<rect x="0" y="0" width="250" height="250" style="fill:rgb(0%,0%,0%);fill-opacity:0.321569;stroke:none;"/>
  </g>
</mask>
<clipPath id="clip7">
  <rect x="0" y="0" width="250" height="250"/>
</clipPath>
<g id="surface23" clip-path="url(#clip7)">
<path style=" stroke:none;fill-rule:nonzero;fill:rgb(0%,0%,0%);fill-opacity:1;" d="M 39.75 134.199219 C 36 136.351562 32.351562 138.601562 28.800781 141 L 66.800781 167.550781 L 81.5 156.199219 Z M 39.75 134.199219 "/>
</g>
<mask id="mask7">
  <g filter="url(#alpha)">
<rect x="0" y="0" width="250" height="250" style="fill:rgb(0%,0%,0%);fill-opacity:0.501961;stroke:none;"/>
  </g>
</mask>
<clipPath id="clip8">
  <rect x="0" y="0" width="250" height="250"/>
</clipPath>
<g id="surface26" clip-path="url(#clip8)">
<path style=" stroke:none;fill-rule:nonzero;fill:rgb(1.960784%,3.137255%,9.019608%);fill-opacity:1;" d="M 45.101562 108.101562 C 43.5 107.449219 41.25 105.25 39.25 105.300781 C 38.5 107.148438 38.300781 109.25 38.050781 111.148438 C 37.699219 114.398438 37.601562 117.648438 37.851562 120.898438 C 37.898438 121.601562 37.949219 122.351562 38.050781 123.050781 C 38.050781 123.25 38.101562 123.449219 38.199219 123.648438 L 38.199219 131.199219 C 38.199219 131.351562 38.300781 131.449219 38.449219 131.449219 C 38.601562 131.449219 38.699219 131.351562 38.699219 131.199219 L 38.699219 123.949219 C 39.449219 123.699219 40.199219 123.351562 40.898438 122.949219 C 42.351562 122.050781 43.449219 120.648438 44 119.050781 C 45.25 115.601562 44.449219 111.75 45.648438 108.300781 C 45.398438 108.25 45.25 108.199219 45.101562 108.101562 Z M 45.101562 108.101562 "/>
</g>
<mask id="mask8">
  <g filter="url(#alpha)">
<rect x="0" y="0" width="250" height="250" style="fill:rgb(0%,0%,0%);fill-opacity:0.501961;stroke:none;"/>
  </g>
</mask>
<clipPath id="clip9">
  <rect x="0" y="0" width="250" height="250"/>
</clipPath>
<g id="surface29" clip-path="url(#clip9)">
<path style=" stroke:none;fill-rule:nonzero;fill:rgb(1.960784%,3.137255%,9.019608%);fill-opacity:1;" d="M 50.449219 108.050781 C 50.550781 108 50.648438 107.898438 50.75 107.851562 C 50.75 107.800781 50.75 107.699219 50.699219 107.648438 C 49.148438 106.050781 47.5 104.5 45.398438 103.75 C 43.898438 103.199219 42.25 103 40.648438 103.300781 C 40.5 103.5 40.300781 103.699219 40.148438 103.898438 C 41.851562 103.351562 44.050781 103.699219 45.601562 104.351562 C 47.449219 105.148438 48.949219 106.550781 50.351562 108 C 50.351562 108 50.398438 108.050781 50.449219 108.050781 Z M 50.449219 108.050781 "/>
</g>
<mask id="mask9">
  <g filter="url(#alpha)">
<rect x="0" y="0" width="250" height="250" style="fill:rgb(0%,0%,0%);fill-opacity:0.501961;stroke:none;"/>
  </g>
</mask>
<clipPath id="clip10">
  <rect x="0" y="0" width="250" height="250"/>
</clipPath>
<g id="surface32" clip-path="url(#clip10)">
<path style=" stroke:none;fill-rule:nonzero;fill:rgb(1.960784%,3.137255%,9.019608%);fill-opacity:1;" d="M 24.648438 111.5 C 22.398438 112.699219 21.050781 115.101562 21.199219 117.648438 C 21.398438 122.199219 28.851562 117.75 30.851562 113.949219 C 32.851562 110.148438 33.148438 115.601562 33.148438 115.601562 "/>
</g>
<mask id="mask10">
  <g filter="url(#alpha)">
<rect x="0" y="0" width="250" height="250" style="fill:rgb(0%,0%,0%);fill-opacity:0.501961;stroke:none;"/>
  </g>
</mask>
<clipPath id="clip11">
  <rect x="0" y="0" width="250" height="250"/>
</clipPath>
<g id="surface35" clip-path="url(#clip11)">
<path style=" stroke:none;fill-rule:nonzero;fill:rgb(1.960784%,3.137255%,9.019608%);fill-opacity:1;" d="M 34.148438 117 C 33.25 114.148438 31.398438 111.449219 28.648438 110.148438 L 28.550781 110.148438 L 28.398438 110.199219 C 28.25 110.25 28.050781 110.300781 27.898438 110.351562 C 31.101562 111.550781 33.101562 114.699219 33.898438 117.898438 C 34.949219 122 34.601562 126.449219 34.601562 130.699219 C 34.601562 130.800781 34.699219 130.898438 34.800781 130.898438 C 34.898438 130.898438 35 130.800781 35 130.699219 C 35.050781 126.148438 35.5 121.351562 34.148438 117 Z M 34.148438 117 "/>
</g>
<mask id="mask11">
  <g filter="url(#alpha)">
<rect x="0" y="0" width="250" height="250" style="fill:rgb(0%,0%,0%);fill-opacity:0.321569;stroke:none;"/>
  </g>
</mask>
<clipPath id="clip12">
  <rect x="0" y="0" width="250" height="250"/>
</clipPath>
<g id="surface38" clip-path="url(#clip12)">
<path style=" stroke:none;fill-rule:nonzero;fill:rgb(0%,0%,0%);fill-opacity:1;" d="M 114.25 139.550781 C 114.148438 139.5 114.050781 139.449219 113.949219 139.398438 C 111.75 139.25 109.5 139.75 107.5 140.75 C 103.851562 142.75 105.800781 146.351562 107.851562 148.949219 L 147.25 176.5 L 162.300781 164.898438 Z M 114.25 139.550781 "/>
</g>
</defs>
<g id="surface1">
<path style=" stroke:none;fill-rule:nonzero;fill:rgb(100%,74.509804%,18.823529%);fill-opacity:1;" d="M 121.601562 205.351562 L 14.550781 142.101562 C 11.148438 140.199219 8.199219 137.050781 11.550781 135 L 119 73.101562 C 120.601562 72.101562 123.050781 71.449219 124.699219 72.398438 L 237.101562 137.601562 C 240.5 139.601562 241.101562 145.101562 237.699219 147.101562 L 135.699219 205.25 C 131.351562 207.800781 126 207.851562 121.601562 205.351562 Z M 121.601562 205.351562 "/>
<use xlink:href="#surface5" mask="url(#mask0)"/>
<path style=" stroke:none;fill-rule:nonzero;fill:rgb(100%,70.196078%,92.156863%);fill-opacity:1;" d="M 187.949219 122.648438 L 184.800781 120.851562 C 182.199219 119.351562 177.851562 121.898438 175.148438 126.601562 C 172.449219 131.300781 172.351562 136.351562 175 137.851562 L 178.148438 139.648438 L 179.398438 137.550781 C 181.300781 136.550781 183.25 134.648438 184.699219 132.101562 C 186.148438 129.550781 186.851562 126.898438 186.75 124.800781 Z M 187.949219 122.648438 "/>
<use xlink:href="#surface8" mask="url(#mask1)"/>
<path style=" stroke:none;fill-rule:nonzero;fill:rgb(100%,70.196078%,92.156863%);fill-opacity:1;" d="M 187.945312 122.6875 C 185.3125 121.167969 180.988281 123.738281 178.28125 128.421875 C 175.574219 133.109375 175.515625 138.140625 178.144531 139.660156 C 180.773438 141.179688 185.101562 138.609375 187.808594 133.921875 C 190.515625 129.238281 190.574219 124.207031 187.945312 122.6875 Z M 187.945312 122.6875 "/>
<use xlink:href="#surface11" mask="url(#mask2)"/>
<path style=" stroke:none;fill-rule:nonzero;fill:rgb(0%,29.803922%,29.803922%);fill-opacity:1;" d="M 202.898438 138.949219 L 185.148438 129.5 C 184.898438 129.351562 184.648438 129.300781 184.398438 129.351562 C 183.5 129.398438 181.648438 129.800781 181.5 132.351562 C 181.449219 132.898438 181.75 133.398438 182.25 133.648438 L 200.398438 143.398438 C 201.050781 143.75 201.898438 143.550781 202.300781 142.851562 L 203.449219 140.898438 C 203.851562 140.25 203.648438 139.351562 202.949219 138.949219 C 202.949219 139 202.898438 138.949219 202.898438 138.949219 Z M 202.898438 138.949219 "/>
<path style=" stroke:none;fill-rule:nonzero;fill:rgb(100%,70.196078%,92.156863%);fill-opacity:1;" d="M 213.949219 136.5 L 210.800781 134.699219 C 208.199219 133.199219 203.851562 135.75 201.148438 140.449219 C 198.449219 145.148438 198.351562 150.199219 201 151.699219 L 204.148438 153.5 L 205.398438 151.398438 C 207.300781 150.398438 209.25 148.5 210.699219 145.949219 C 212.148438 143.398438 212.851562 140.75 212.75 138.648438 Z M 213.949219 136.5 "/>
<use xlink:href="#surface14" mask="url(#mask3)"/>
<path style=" stroke:none;fill-rule:nonzero;fill:rgb(100%,70.196078%,92.156863%);fill-opacity:1;" d="M 214.519531 135.609375 C 211.886719 134.097656 207.554688 136.695312 204.84375 141.410156 C 202.132812 146.125 202.070312 151.175781 204.703125 152.691406 C 207.335938 154.203125 211.671875 151.609375 214.378906 146.890625 C 217.089844 142.175781 217.152344 137.125 214.519531 135.609375 Z M 214.519531 135.609375 "/>
<use xlink:href="#surface17" mask="url(#mask4)"/>
<path style=" stroke:none;fill-rule:nonzero;fill:rgb(100%,70.196078%,92.156863%);fill-opacity:1;" d="M 213.199219 141.949219 L 211.699219 141.101562 C 210.449219 140.351562 208.398438 141.601562 207.101562 143.851562 C 205.800781 146.101562 205.800781 148.5 207.050781 149.199219 L 208.550781 150.050781 L 209.148438 149.050781 C 211.25 147.75 212.601562 145.449219 212.648438 142.949219 Z M 213.199219 141.949219 "/>
<use xlink:href="#surface20" mask="url(#mask5)"/>
<path style=" stroke:none;fill-rule:nonzero;fill:rgb(100%,70.196078%,92.156863%);fill-opacity:1;" d="M 213.769531 141.144531 C 212.5 140.414062 210.421875 141.648438 209.128906 143.898438 C 207.835938 146.148438 207.816406 148.566406 209.085938 149.292969 C 210.355469 150.023438 212.429688 148.789062 213.722656 146.539062 C 215.019531 144.289062 215.039062 141.875 213.769531 141.144531 Z M 213.769531 141.144531 "/>
<use xlink:href="#surface23" mask="url(#mask6)"/>
<path style=" stroke:none;fill-rule:nonzero;fill:rgb(0%,29.803922%,29.803922%);fill-opacity:1;" d="M 28.75 130.199219 L 28.75 139.75 L 44.148438 139.75 L 44.148438 130.199219 "/>
<path style=" stroke:none;fill-rule:nonzero;fill:rgb(86.666667%,39.607843%,29.019608%);fill-opacity:1;" d="M 44.148438 130.199219 C 44.148438 128.101562 40.703125 126.398438 36.449219 126.398438 C 32.199219 126.398438 28.75 128.101562 28.75 130.199219 C 28.75 132.296875 32.199219 134 36.449219 134 C 40.703125 134 44.148438 132.296875 44.148438 130.199219 Z M 44.148438 130.199219 "/>
<path style=" stroke:none;fill-rule:nonzero;fill:rgb(0%,29.803922%,29.803922%);fill-opacity:1;" d="M 44.148438 140.101562 C 44.148438 138 40.703125 136.300781 36.449219 136.300781 C 32.199219 136.300781 28.75 138 28.75 140.101562 C 28.75 142.199219 32.199219 143.898438 36.449219 143.898438 C 40.703125 143.898438 44.148438 142.199219 44.148438 140.101562 Z M 44.148438 140.101562 "/>
<path style=" stroke:none;fill-rule:nonzero;fill:rgb(37.254902%,67.843137%,0%);fill-opacity:1;" d="M 45.101562 108.101562 C 43.5 107.449219 41.25 105.25 39.25 105.300781 C 38.5 107.148438 38.300781 109.25 38.050781 111.148438 C 37.699219 114.398438 37.601562 117.648438 37.851562 120.898438 C 37.898438 121.601562 37.949219 122.351562 38.050781 123.050781 C 38.050781 123.25 38.101562 123.449219 38.199219 123.648438 L 38.199219 131.199219 C 38.199219 131.351562 38.300781 131.449219 38.449219 131.449219 C 38.601562 131.449219 38.699219 131.351562 38.699219 131.199219 L 38.699219 123.949219 C 39.449219 123.699219 40.199219 123.351562 40.898438 122.949219 C 42.351562 122.050781 43.449219 120.648438 44 119.050781 C 45.25 115.601562 44.449219 111.75 45.648438 108.300781 C 45.398438 108.25 45.25 108.199219 45.101562 108.101562 Z M 45.101562 108.101562 "/>
<use xlink:href="#surface26" mask="url(#mask7)"/>
<path style=" stroke:none;fill-rule:nonzero;fill:rgb(37.254902%,67.843137%,0%);fill-opacity:1;" d="M 41.75 102.449219 C 40.851562 103 40.050781 103.75 39.550781 104.699219 C 39.398438 104.898438 39.300781 105.148438 39.199219 105.351562 C 39.199219 105.398438 39.148438 105.449219 39.148438 105.5 C 39 105.898438 38.898438 106.300781 38.800781 106.699219 C 39 106.398438 39.300781 106.148438 39.601562 106.050781 C 40 105.851562 40.449219 105.851562 40.898438 105.949219 C 41.300781 106.101562 41.699219 106.300781 42.050781 106.601562 C 42.601562 106.949219 43.148438 107.300781 43.648438 107.648438 C 46.199219 109.25 49.601562 109.449219 51.550781 107.101562 C 51.550781 107 51.601562 106.898438 51.601562 106.800781 C 51.949219 105.148438 47.398438 99.199219 41.75 102.449219 Z M 41.75 102.449219 "/>
<use xlink:href="#surface29" mask="url(#mask8)"/>
<path style=" stroke:none;fill-rule:nonzero;fill:rgb(37.254902%,67.843137%,0%);fill-opacity:1;" d="M 24.648438 111.5 C 22.398438 112.699219 21.050781 115.101562 21.199219 117.648438 C 21.398438 122.199219 28.851562 117.75 30.851562 113.949219 C 32.851562 110.148438 33.148438 115.601562 33.148438 115.601562 "/>
<use xlink:href="#surface32" mask="url(#mask9)"/>
<path style=" stroke:none;fill-rule:nonzero;fill:rgb(37.254902%,67.843137%,0%);fill-opacity:1;" d="M 31.351562 109.898438 C 29.949219 109.898438 28.550781 110.050781 27.199219 110.5 C 26.300781 110.699219 25.449219 111.050781 24.601562 111.5 C 25.050781 111.800781 25.550781 112.101562 26.101562 112.300781 C 27.050781 112.699219 28 113.148438 28.5 114.050781 C 28.601562 114.25 28.699219 114.5 28.800781 114.75 C 29.25 116.25 28.851562 118.050781 29.449219 119.550781 C 30.050781 121.050781 31.300781 122.351562 33.101562 122.5 C 35.199219 122.601562 36.148438 120.601562 36.601562 118.851562 C 37.050781 117.101562 37.601562 114.699219 36.898438 112.898438 C 36.148438 110.75 33.351562 110 31.351562 109.898438 Z M 31.351562 109.898438 "/>
<path style=" stroke:none;fill-rule:nonzero;fill:rgb(37.254902%,67.843137%,0%);fill-opacity:1;" d="M 34.148438 117 C 33.25 114.148438 31.398438 111.449219 28.648438 110.148438 L 28.550781 110.148438 L 28.398438 110.199219 C 28.25 110.25 28.050781 110.300781 27.898438 110.351562 C 31.101562 111.550781 33.101562 114.699219 33.898438 117.898438 C 34.949219 122 34.601562 126.449219 34.601562 130.699219 C 34.601562 130.800781 34.699219 130.898438 34.800781 130.898438 C 34.898438 130.898438 35 130.800781 35 130.699219 C 35.050781 126.148438 35.5 121.351562 34.148438 117 Z M 34.148438 117 "/>
<use xlink:href="#surface35" mask="url(#mask10)"/>
<path style=" stroke:none;fill-rule:nonzero;fill:rgb(0%,29.803922%,29.803922%);fill-opacity:1;" d="M 183.949219 162.550781 L 147.199219 183.699219 L 57.550781 131.851562 L 94.300781 110.449219 Z M 183.949219 162.550781 "/>
<path style=" stroke:none;fill-rule:nonzero;fill:rgb(100%,74.509804%,70.196078%);fill-opacity:1;" d="M 126.300781 93.351562 C 126.300781 93.351562 113.800781 97.648438 112.300781 100.199219 C 110.800781 102.75 110.601562 117.398438 107.398438 125.398438 C 107.851562 126.601562 109.148438 127.199219 110.351562 126.851562 C 112.601562 126.25 116.148438 113.351562 116.851562 109.550781 C 117.550781 105.75 117.949219 104.449219 117.949219 104.449219 L 129.699219 102.898438 Z M 126.300781 93.351562 "/>
<path style=" stroke:none;fill-rule:nonzero;fill:rgb(1.960784%,3.137255%,9.019608%);fill-opacity:1;" d="M 108.25 125.601562 C 108.25 125.601562 108.949219 123.25 108.351562 122.25 C 107.75 121.25 107.199219 122.050781 106.75 122.949219 C 106.300781 123.851562 106.199219 124.351562 105.898438 124.699219 C 105.601562 125.050781 103 128.300781 101.699219 128.398438 C 100.398438 128.5 97.398438 128.75 97.851562 130.75 C 98.300781 132.75 102.050781 133.75 105.199219 133.148438 C 108.351562 132.550781 109.199219 130.601562 111.898438 131.449219 C 114.601562 132.300781 115.601562 130.898438 116.050781 130 C 116.5 129.101562 113.351562 124.449219 113.351562 124.449219 C 113.351562 124.449219 110.601562 126.449219 108.25 125.601562 Z M 108.25 125.601562 "/>
<path style=" stroke:none;fill-rule:nonzero;fill:rgb(100%,74.509804%,70.196078%);fill-opacity:1;" d="M 139.800781 113 C 139.800781 113 142.300781 128.699219 142.75 130.898438 C 143.199219 133.101562 144.199219 154.199219 144 155.601562 C 143.800781 157 145.851562 162.75 148.648438 155.75 C 148.648438 155.75 150.851562 135.550781 150.648438 132.699219 C 150.449219 129.851562 151.199219 112.5 150.898438 110 "/>
<path style=" stroke:none;fill-rule:nonzero;fill:rgb(1.568627%,47.058824%,46.666667%);fill-opacity:1;" d="M 141.398438 138.75 C 144.449219 139.648438 147.199219 139.949219 150.25 138.75 C 150.699219 138.5 150.601562 136.648438 150.648438 136.25 C 150.800781 134.351562 150.851562 132.449219 150.898438 130.550781 C 151.101562 124.550781 150.898438 118.5 151.699219 112.550781 C 152.148438 109.101562 152.101562 105.601562 151.648438 102.148438 C 151.398438 100.300781 151 98.449219 150.398438 96.699219 C 150.101562 95.851562 149.75 95 149.300781 94.199219 C 149.101562 93.851562 148.25 91.949219 147.851562 91.898438 L 134.351562 89.898438 L 113.550781 97.800781 C 113.550781 97.800781 113.550781 102.050781 118.601562 105.601562 C 118.601562 105.601562 132.75 104.648438 136 103.898438 C 136 103.898438 140.449219 135.800781 141.398438 138.75 Z M 141.398438 138.75 "/>
<path style=" stroke:none;fill-rule:nonzero;fill:rgb(100%,74.509804%,70.196078%);fill-opacity:1;" d="M 138.898438 59.398438 C 138.898438 59.398438 131.75 58 130.199219 56.75 C 128.648438 55.5 126.25 53.25 123.351562 51.898438 C 120.449219 50.550781 114.949219 49.5 113.550781 48.148438 C 111.800781 46.449219 109.949219 44.898438 107.949219 43.5 L 104.851562 42.851562 C 104.851562 42.851562 104.898438 44 106.398438 44.5 C 107.898438 45 108.648438 45.550781 109.050781 46.351562 C 109.449219 47.148438 110.050781 47.851562 109.449219 47.949219 C 108.851562 48.050781 106.351562 47.449219 106.351562 48.050781 C 106.351562 48.648438 108.648438 49.101562 109.75 49.550781 C 110.851562 50 116.199219 54.199219 119.449219 55.851562 C 122.699219 57.5 131.050781 62.898438 131.648438 64.148438 C 132.101562 65.148438 132.449219 66.25 132.699219 67.300781 C 132.699219 67.300781 147.199219 75.550781 149.101562 75.648438 C 151 75.75 152.75 74.800781 154.148438 75.648438 C 155.550781 76.5 162.800781 78.699219 165.550781 80.101562 C 168.300781 81.5 172.75 83.699219 175.050781 84.148438 C 177.351562 84.601562 178.949219 85.148438 179.851562 85.851562 C 180.75 86.550781 181.550781 87.898438 182.300781 88.800781 C 183.050781 89.699219 183.648438 90.449219 183.851562 90.199219 C 184.050781 89.949219 183.398438 88.699219 183 87.699219 C 182.601562 86.699219 182.550781 86.25 183.300781 86.25 C 184.050781 86.25 188.5 88.5 189.25 88.199219 C 190 87.898438 186.699219 85.101562 185.800781 84.101562 C 184.898438 83.101562 180.199219 82.601562 179.300781 82.101562 C 178.398438 81.601562 163.601562 74.300781 162.148438 73 C 160.699219 71.699219 153.550781 66.898438 151.601562 65.351562 C 149.648438 63.800781 142.851562 60.601562 138.898438 59.398438 Z M 138.898438 59.398438 "/>
<path style=" stroke:none;fill-rule:nonzero;fill:rgb(0%,29.803922%,29.803922%);fill-opacity:1;" d="M 147.25 89.050781 C 147.25 87.601562 147.398438 86.199219 147.699219 84.800781 C 148.300781 81.25 148.898438 79.351562 149.101562 75.75 C 148.601562 74.851562 148.851562 72.148438 149.148438 70.648438 C 149.898438 66.699219 151.75 65.699219 151.75 65.699219 C 151.398438 65.300781 151 64.898438 150.5 64.648438 C 150.050781 64.449219 146 66.351562 144.898438 70.851562 C 144.898438 70.851562 136.949219 68.601562 136.351562 67.5 C 135.75 66.398438 138.601562 60.5 140.550781 60.148438 C 142.5 59.800781 138.550781 58.648438 138.550781 58.648438 C 138.550781 58.648438 131.601562 65.898438 131.050781 70.25 C 130.5 74.601562 133.199219 88.25 134.148438 90.449219 C 135.101562 92.648438 141.199219 96.601562 148 92.5 C 147.601562 91.25 147.351562 90.148438 147.25 89.050781 Z M 147.25 89.050781 "/>
<path style=" stroke:none;fill-rule:nonzero;fill:rgb(1.960784%,3.137255%,9.019608%);fill-opacity:1;" d="M 153.449219 47.050781 C 153 44.898438 150.949219 43.550781 148.800781 44 C 148.800781 44 148.75 44 148.75 44 C 147.101562 44.25 145.699219 45.199219 144.851562 46.648438 C 141.25 45.398438 137.199219 47.148438 135.699219 49.449219 C 133.800781 52.300781 136 54.300781 136 54.300781 L 142.898438 61.199219 C 144 60.851562 145.101562 60.449219 146.148438 59.898438 C 147.949219 58.949219 149.25 55.351562 149.101562 52.199219 C 149.800781 52.300781 150.5 52.199219 151.148438 51.898438 C 152.949219 51.101562 153.949219 49.050781 153.449219 47.050781 Z M 153.449219 47.050781 "/>
<path style=" stroke:none;fill-rule:nonzero;fill:rgb(100%,74.509804%,70.196078%);fill-opacity:1;" d="M 136 54.25 C 136 54.25 136.75 63.5 139.300781 63.949219 C 141.851562 64.398438 143.601562 62.351562 144 61.398438 C 144.25 60.851562 144.351562 60.300781 144.351562 59.75 C 144.351562 59.75 146.648438 58.601562 146.148438 57.25 C 145.648438 55.898438 144.300781 57.800781 143.898438 57.648438 C 143.5 57.5 142.449219 57.25 142.300781 55.449219 C 142.148438 53.648438 138.351562 55.699219 136 54.25 Z M 136 54.25 "/>
<path style=" stroke:none;fill-rule:nonzero;fill:rgb(1.960784%,3.137255%,9.019608%);fill-opacity:1;" d="M 142.101562 156.5 C 142.101562 156.5 141.898438 154.300781 143.351562 154.300781 C 144.800781 154.300781 146.449219 154.75 146.550781 155.949219 C 146.601562 156.800781 146.601562 157.648438 146.550781 158.5 C 146.550781 158.5 148.75 153.398438 149.199219 153.5 C 149.648438 153.601562 150 155.300781 149.949219 156 C 149.898438 156.699219 148.75 161.800781 148.300781 162.800781 C 147.851562 163.800781 145.300781 167.25 142.101562 167.449219 C 138.898438 167.648438 137.449219 165.550781 138.101562 164.148438 C 138.75 162.75 141.75 160.351562 142.101562 156.5 Z M 142.101562 156.5 "/>
<path style=" stroke:none;fill-rule:nonzero;fill:rgb(1.568627%,47.058824%,46.666667%);fill-opacity:1;" d="M 113.550781 97.800781 C 113.550781 97.800781 111 98.351562 110.5 104.449219 L 117.050781 108.601562 L 118.601562 105.601562 "/>
<path style=" stroke:none;fill-rule:nonzero;fill:rgb(86.666667%,39.607843%,29.019608%);fill-opacity:1;" d="M 146.898438 139.5 L 147.800781 139.449219 C 148.898438 124.148438 148.199219 108.75 145.601562 93.601562 C 145.5 93.050781 144.648438 93.25 144.75 93.851562 C 147.300781 108.898438 148 124.25 146.898438 139.5 Z M 146.898438 139.5 "/>
<use xlink:href="#surface38" mask="url(#mask11)"/>
</g>
</svg>
