<?xml version="1.0" encoding="UTF-8"?>
<svg xmlns="http://www.w3.org/2000/svg" xmlns:xlink="http://www.w3.org/1999/xlink" width="500px" height="500px" viewBox="0 0 500 500" version="1.1">
<defs>
<filter id="alpha" filterUnits="objectBoundingBox" x="0%" y="0%" width="100%" height="100%">
  <feColorMatrix type="matrix" in="SourceGraphic" values="0 0 0 0 1 0 0 0 0 1 0 0 0 0 1 0 0 0 1 0"/>
</filter>
<mask id="mask0">
  <g filter="url(#alpha)">
<rect x="0" y="0" width="500" height="500" style="fill:rgb(0%,0%,0%);fill-opacity:0.321569;stroke:none;"/>
  </g>
</mask>
<clipPath id="clip1">
  <rect x="0" y="0" width="500" height="500"/>
</clipPath>
<g id="surface5" clip-path="url(#clip1)">
<path style=" stroke:none;fill-rule:nonzero;fill:rgb(0%,0%,0%);fill-opacity:1;" d="M 370.5 260 C 362.898438 264.398438 355.398438 269 348.101562 273.898438 L 425.601562 328.199219 L 455.699219 305 Z M 370.5 260 "/>
</g>
<mask id="mask1">
  <g filter="url(#alpha)">
<rect x="0" y="0" width="500" height="500" style="fill:rgb(0%,0%,0%);fill-opacity:0.301961;stroke:none;"/>
  </g>
</mask>
<clipPath id="clip2">
  <rect x="0" y="0" width="500" height="500"/>
</clipPath>
<g id="surface8" clip-path="url(#clip2)">
<path style=" stroke:none;fill-rule:nonzero;fill:rgb(1.960784%,3.137255%,9.019608%);fill-opacity:1;" d="M 375.898438 245.300781 L 369.601562 241.699219 C 364.398438 238.699219 355.699219 243.800781 350.300781 253.199219 C 344.898438 262.601562 344.699219 272.699219 350 275.699219 L 356.300781 279.300781 L 358.800781 275.101562 C 362.601562 273.101562 366.5 269.300781 369.398438 264.199219 C 372.300781 259.101562 373.699219 253.800781 373.5 249.601562 Z M 375.898438 245.300781 "/>
</g>
<mask id="mask2">
  <g filter="url(#alpha)">
<rect x="0" y="0" width="500" height="500" style="fill:rgb(0%,0%,0%);fill-opacity:0.501961;stroke:none;"/>
  </g>
</mask>
<clipPath id="clip3">
  <rect x="0" y="0" width="500" height="500"/>
</clipPath>
<g id="surface11" clip-path="url(#clip3)">
<path style=" stroke:none;fill-rule:nonzero;fill:rgb(1.960784%,3.137255%,9.019608%);fill-opacity:1;" d="M 375.890625 245.375 C 370.628906 242.335938 361.976562 247.472656 356.5625 256.847656 C 351.152344 266.222656 351.027344 276.28125 356.289062 279.320312 C 361.550781 282.359375 370.203125 277.222656 375.617188 267.847656 C 381.027344 258.472656 381.152344 248.410156 375.890625 245.375 Z M 375.890625 245.375 "/>
</g>
<mask id="mask3">
  <g filter="url(#alpha)">
<rect x="0" y="0" width="500" height="500" style="fill:rgb(0%,0%,0%);fill-opacity:0.501961;stroke:none;"/>
  </g>
</mask>
<clipPath id="clip4">
  <rect x="0" y="0" width="500" height="500"/>
</clipPath>
<g id="surface14" clip-path="url(#clip4)">
<path style=" stroke:none;fill-rule:nonzero;fill:rgb(1.960784%,3.137255%,9.019608%);fill-opacity:1;" d="M 427.898438 273 L 421.601562 269.398438 C 416.398438 266.398438 407.699219 271.5 402.300781 280.898438 C 396.898438 290.300781 396.699219 300.398438 402 303.398438 L 408.300781 307 L 410.800781 302.800781 C 414.601562 300.800781 418.5 297 421.398438 291.898438 C 424.300781 286.800781 425.699219 281.5 425.5 277.300781 Z M 427.898438 273 "/>
</g>
<mask id="mask4">
  <g filter="url(#alpha)">
<rect x="0" y="0" width="500" height="500" style="fill:rgb(0%,0%,0%);fill-opacity:0.301961;stroke:none;"/>
  </g>
</mask>
<clipPath id="clip5">
  <rect x="0" y="0" width="500" height="500"/>
</clipPath>
<g id="surface17" clip-path="url(#clip5)">
<path style=" stroke:none;fill-rule:nonzero;fill:rgb(1.960784%,3.137255%,9.019608%);fill-opacity:1;" d="M 429.039062 271.222656 C 423.773438 268.195312 415.109375 273.386719 409.6875 282.820312 C 404.265625 292.253906 404.140625 302.355469 409.40625 305.382812 C 414.675781 308.410156 423.339844 303.214844 428.761719 293.78125 C 434.183594 284.347656 434.308594 274.25 429.039062 271.222656 Z M 429.039062 271.222656 "/>
</g>
<mask id="mask5">
  <g filter="url(#alpha)">
<rect x="0" y="0" width="500" height="500" style="fill:rgb(0%,0%,0%);fill-opacity:0.501961;stroke:none;"/>
  </g>
</mask>
<clipPath id="clip6">
  <rect x="0" y="0" width="500" height="500"/>
</clipPath>
<g id="surface20" clip-path="url(#clip6)">
<path style=" stroke:none;fill-rule:nonzero;fill:rgb(1.960784%,3.137255%,9.019608%);fill-opacity:1;" d="M 426.398438 283.898438 L 423.398438 282.199219 C 420.898438 280.699219 416.800781 283.199219 414.199219 287.699219 C 411.601562 292.199219 411.601562 297 414.101562 298.398438 L 417.101562 300.101562 L 418.300781 298.101562 C 422.5 295.5 425.199219 290.898438 425.300781 285.898438 Z M 426.398438 283.898438 "/>
</g>
<mask id="mask6">
  <g filter="url(#alpha)">
<rect x="0" y="0" width="500" height="500" style="fill:rgb(0%,0%,0%);fill-opacity:0.321569;stroke:none;"/>
  </g>
</mask>
<clipPath id="clip7">
  <rect x="0" y="0" width="500" height="500"/>
</clipPath>
<g id="surface23" clip-path="url(#clip7)">
<path style=" stroke:none;fill-rule:nonzero;fill:rgb(0%,0%,0%);fill-opacity:1;" d="M 79.5 268.398438 C 72 272.699219 64.699219 277.199219 57.601562 282 L 133.601562 335.101562 L 163 312.398438 Z M 79.5 268.398438 "/>
</g>
<mask id="mask7">
  <g filter="url(#alpha)">
<rect x="0" y="0" width="500" height="500" style="fill:rgb(0%,0%,0%);fill-opacity:0.501961;stroke:none;"/>
  </g>
</mask>
<clipPath id="clip8">
  <rect x="0" y="0" width="500" height="500"/>
</clipPath>
<g id="surface26" clip-path="url(#clip8)">
<path style=" stroke:none;fill-rule:nonzero;fill:rgb(1.960784%,3.137255%,9.019608%);fill-opacity:1;" d="M 90.199219 216.199219 C 87 214.898438 82.5 210.5 78.5 210.601562 C 77 214.300781 76.601562 218.5 76.101562 222.300781 C 75.398438 228.800781 75.199219 235.300781 75.699219 241.800781 C 75.800781 243.199219 75.898438 244.699219 76.101562 246.101562 C 76.101562 246.5 76.199219 246.898438 76.398438 247.300781 L 76.398438 262.398438 C 76.398438 262.699219 76.601562 262.898438 76.898438 262.898438 C 77.199219 262.898438 77.398438 262.699219 77.398438 262.398438 L 77.398438 247.898438 C 78.898438 247.398438 80.398438 246.699219 81.800781 245.898438 C 84.699219 244.101562 86.898438 241.300781 88 238.101562 C 90.5 231.199219 88.898438 223.5 91.300781 216.601562 C 90.800781 216.5 90.5 216.398438 90.199219 216.199219 Z M 90.199219 216.199219 "/>
</g>
<mask id="mask8">
  <g filter="url(#alpha)">
<rect x="0" y="0" width="500" height="500" style="fill:rgb(0%,0%,0%);fill-opacity:0.501961;stroke:none;"/>
  </g>
</mask>
<clipPath id="clip9">
  <rect x="0" y="0" width="500" height="500"/>
</clipPath>
<g id="surface29" clip-path="url(#clip9)">
<path style=" stroke:none;fill-rule:nonzero;fill:rgb(1.960784%,3.137255%,9.019608%);fill-opacity:1;" d="M 100.898438 216.101562 C 101.101562 216 101.300781 215.800781 101.5 215.699219 C 101.5 215.601562 101.5 215.398438 101.398438 215.300781 C 98.300781 212.101562 95 209 90.800781 207.5 C 87.800781 206.398438 84.5 206 81.300781 206.601562 C 81 207 80.601562 207.398438 80.300781 207.800781 C 83.699219 206.699219 88.101562 207.398438 91.199219 208.699219 C 94.898438 210.300781 97.898438 213.101562 100.699219 216 C 100.699219 216 100.800781 216.101562 100.898438 216.101562 Z M 100.898438 216.101562 "/>
</g>
<mask id="mask9">
  <g filter="url(#alpha)">
<rect x="0" y="0" width="500" height="500" style="fill:rgb(0%,0%,0%);fill-opacity:0.501961;stroke:none;"/>
  </g>
</mask>
<clipPath id="clip10">
  <rect x="0" y="0" width="500" height="500"/>
</clipPath>
<g id="surface32" clip-path="url(#clip10)">
<path style=" stroke:none;fill-rule:nonzero;fill:rgb(1.960784%,3.137255%,9.019608%);fill-opacity:1;" d="M 49.300781 223 C 44.800781 225.398438 42.101562 230.199219 42.398438 235.300781 C 42.800781 244.398438 57.699219 235.5 61.699219 227.898438 C 65.699219 220.300781 66.300781 231.199219 66.300781 231.199219 "/>
</g>
<mask id="mask10">
  <g filter="url(#alpha)">
<rect x="0" y="0" width="500" height="500" style="fill:rgb(0%,0%,0%);fill-opacity:0.501961;stroke:none;"/>
  </g>
</mask>
<clipPath id="clip11">
  <rect x="0" y="0" width="500" height="500"/>
</clipPath>
<g id="surface35" clip-path="url(#clip11)">
<path style=" stroke:none;fill-rule:nonzero;fill:rgb(1.960784%,3.137255%,9.019608%);fill-opacity:1;" d="M 68.300781 234 C 66.5 228.300781 62.800781 222.898438 57.300781 220.300781 L 57.101562 220.300781 L 56.800781 220.398438 C 56.5 220.5 56.101562 220.601562 55.800781 220.699219 C 62.199219 223.101562 66.199219 229.398438 67.800781 235.800781 C 69.898438 244 69.199219 252.898438 69.199219 261.398438 C 69.199219 261.601562 69.398438 261.800781 69.601562 261.800781 C 69.800781 261.800781 70 261.601562 70 261.398438 C 70.101562 252.300781 71 242.699219 68.300781 234 Z M 68.300781 234 "/>
</g>
<mask id="mask11">
  <g filter="url(#alpha)">
<rect x="0" y="0" width="500" height="500" style="fill:rgb(0%,0%,0%);fill-opacity:0.321569;stroke:none;"/>
  </g>
</mask>
<clipPath id="clip12">
  <rect x="0" y="0" width="500" height="500"/>
</clipPath>
<g id="surface38" clip-path="url(#clip12)">
<path style=" stroke:none;fill-rule:nonzero;fill:rgb(0%,0%,0%);fill-opacity:1;" d="M 228.5 279.101562 C 228.300781 279 228.101562 278.898438 227.898438 278.800781 C 223.5 278.5 219 279.5 215 281.5 C 207.699219 285.5 211.601562 292.699219 215.699219 297.898438 L 294.5 353 L 324.601562 329.800781 Z M 228.5 279.101562 "/>
</g>
</defs>
<g id="surface1">
<path style=" stroke:none;fill-rule:nonzero;fill:rgb(100%,74.509804%,18.823529%);fill-opacity:1;" d="M 243.199219 410.699219 L 29.101562 284.199219 C 22.300781 280.398438 16.398438 274.101562 23.101562 270 L 238 146.199219 C 241.199219 144.199219 246.101562 142.898438 249.398438 144.800781 L 474.199219 275.199219 C 481 279.199219 482.199219 290.199219 475.398438 294.199219 L 271.398438 410.5 C 262.699219 415.601562 252 415.699219 243.199219 410.699219 Z M 243.199219 410.699219 "/>
<use xlink:href="#surface5" mask="url(#mask0)"/>
<path style=" stroke:none;fill-rule:nonzero;fill:rgb(100%,70.196078%,92.156863%);fill-opacity:1;" d="M 375.898438 245.300781 L 369.601562 241.699219 C 364.398438 238.699219 355.699219 243.800781 350.300781 253.199219 C 344.898438 262.601562 344.699219 272.699219 350 275.699219 L 356.300781 279.300781 L 358.800781 275.101562 C 362.601562 273.101562 366.5 269.300781 369.398438 264.199219 C 372.300781 259.101562 373.699219 253.800781 373.5 249.601562 Z M 375.898438 245.300781 "/>
<use xlink:href="#surface8" mask="url(#mask1)"/>
<path style=" stroke:none;fill-rule:nonzero;fill:rgb(100%,70.196078%,92.156863%);fill-opacity:1;" d="M 375.890625 245.375 C 370.628906 242.335938 361.976562 247.472656 356.5625 256.847656 C 351.152344 266.222656 351.027344 276.28125 356.289062 279.320312 C 361.550781 282.359375 370.203125 277.222656 375.617188 267.847656 C 381.027344 258.472656 381.152344 248.410156 375.890625 245.375 Z M 375.890625 245.375 "/>
<use xlink:href="#surface11" mask="url(#mask2)"/>
<path style=" stroke:none;fill-rule:nonzero;fill:rgb(0%,29.803922%,29.803922%);fill-opacity:1;" d="M 405.800781 277.898438 L 370.300781 259 C 369.800781 258.699219 369.300781 258.601562 368.800781 258.699219 C 367 258.800781 363.300781 259.601562 363 264.699219 C 362.898438 265.800781 363.5 266.800781 364.5 267.300781 L 400.800781 286.800781 C 402.101562 287.5 403.800781 287.101562 404.601562 285.699219 L 406.898438 281.800781 C 407.699219 280.5 407.300781 278.699219 405.898438 277.898438 C 405.898438 278 405.800781 277.898438 405.800781 277.898438 Z M 405.800781 277.898438 "/>
<path style=" stroke:none;fill-rule:nonzero;fill:rgb(100%,70.196078%,92.156863%);fill-opacity:1;" d="M 427.898438 273 L 421.601562 269.398438 C 416.398438 266.398438 407.699219 271.5 402.300781 280.898438 C 396.898438 290.300781 396.699219 300.398438 402 303.398438 L 408.300781 307 L 410.800781 302.800781 C 414.601562 300.800781 418.5 297 421.398438 291.898438 C 424.300781 286.800781 425.699219 281.5 425.5 277.300781 Z M 427.898438 273 "/>
<use xlink:href="#surface14" mask="url(#mask3)"/>
<path style=" stroke:none;fill-rule:nonzero;fill:rgb(100%,70.196078%,92.156863%);fill-opacity:1;" d="M 429.039062 271.222656 C 423.773438 268.195312 415.109375 273.386719 409.6875 282.820312 C 404.265625 292.253906 404.140625 302.355469 409.40625 305.382812 C 414.675781 308.410156 423.339844 303.214844 428.761719 293.78125 C 434.183594 284.347656 434.308594 274.25 429.039062 271.222656 Z M 429.039062 271.222656 "/>
<use xlink:href="#surface17" mask="url(#mask4)"/>
<path style=" stroke:none;fill-rule:nonzero;fill:rgb(100%,70.196078%,92.156863%);fill-opacity:1;" d="M 426.398438 283.898438 L 423.398438 282.199219 C 420.898438 280.699219 416.800781 283.199219 414.199219 287.699219 C 411.601562 292.199219 411.601562 297 414.101562 298.398438 L 417.101562 300.101562 L 418.300781 298.101562 C 422.5 295.5 425.199219 290.898438 425.300781 285.898438 Z M 426.398438 283.898438 "/>
<use xlink:href="#surface20" mask="url(#mask5)"/>
<path style=" stroke:none;fill-rule:nonzero;fill:rgb(100%,70.196078%,92.156863%);fill-opacity:1;" d="M 427.539062 282.289062 C 425 280.832031 420.847656 283.296875 418.257812 287.796875 C 415.671875 292.296875 415.632812 297.128906 418.171875 298.589844 C 420.707031 300.046875 424.863281 297.582031 427.449219 293.078125 C 430.035156 288.578125 430.074219 283.746094 427.539062 282.289062 Z M 427.539062 282.289062 "/>
<use xlink:href="#surface23" mask="url(#mask6)"/>
<path style=" stroke:none;fill-rule:nonzero;fill:rgb(0%,29.803922%,29.803922%);fill-opacity:1;" d="M 57.5 260.398438 L 57.5 279.5 L 88.300781 279.5 L 88.300781 260.398438 "/>
<path style=" stroke:none;fill-rule:nonzero;fill:rgb(86.666667%,39.607843%,29.019608%);fill-opacity:1;" d="M 88.300781 260.398438 C 88.300781 256.203125 81.40625 252.800781 72.898438 252.800781 C 64.394531 252.800781 57.5 256.203125 57.5 260.398438 C 57.5 264.597656 64.394531 268 72.898438 268 C 81.40625 268 88.300781 264.597656 88.300781 260.398438 Z M 88.300781 260.398438 "/>
<path style=" stroke:none;fill-rule:nonzero;fill:rgb(0%,29.803922%,29.803922%);fill-opacity:1;" d="M 88.300781 280.199219 C 88.300781 276.003906 81.40625 272.601562 72.898438 272.601562 C 64.394531 272.601562 57.5 276.003906 57.5 280.199219 C 57.5 284.398438 64.394531 287.800781 72.898438 287.800781 C 81.40625 287.800781 88.300781 284.398438 88.300781 280.199219 Z M 88.300781 280.199219 "/>
<path style=" stroke:none;fill-rule:nonzero;fill:rgb(37.254902%,67.843137%,0%);fill-opacity:1;" d="M 90.199219 216.199219 C 87 214.898438 82.5 210.5 78.5 210.601562 C 77 214.300781 76.601562 218.5 76.101562 222.300781 C 75.398438 228.800781 75.199219 235.300781 75.699219 241.800781 C 75.800781 243.199219 75.898438 244.699219 76.101562 246.101562 C 76.101562 246.5 76.199219 246.898438 76.398438 247.300781 L 76.398438 262.398438 C 76.398438 262.699219 76.601562 262.898438 76.898438 262.898438 C 77.199219 262.898438 77.398438 262.699219 77.398438 262.398438 L 77.398438 247.898438 C 78.898438 247.398438 80.398438 246.699219 81.800781 245.898438 C 84.699219 244.101562 86.898438 241.300781 88 238.101562 C 90.5 231.199219 88.898438 223.5 91.300781 216.601562 C 90.800781 216.5 90.5 216.398438 90.199219 216.199219 Z M 90.199219 216.199219 "/>
<use xlink:href="#surface26" mask="url(#mask7)"/>
<path style=" stroke:none;fill-rule:nonzero;fill:rgb(37.254902%,67.843137%,0%);fill-opacity:1;" d="M 83.5 204.898438 C 81.699219 206 80.101562 207.5 79.101562 209.398438 C 78.800781 209.800781 78.601562 210.300781 78.398438 210.699219 C 78.398438 210.800781 78.300781 210.898438 78.300781 211 C 78 211.800781 77.800781 212.601562 77.601562 213.398438 C 78 212.800781 78.601562 212.300781 79.199219 212.101562 C 80 211.699219 80.898438 211.699219 81.800781 211.898438 C 82.601562 212.199219 83.398438 212.601562 84.101562 213.199219 C 85.199219 213.898438 86.300781 214.601562 87.300781 215.300781 C 92.398438 218.5 99.199219 218.898438 103.101562 214.199219 C 103.101562 214 103.199219 213.800781 103.199219 213.601562 C 103.898438 210.300781 94.800781 198.398438 83.5 204.898438 Z M 83.5 204.898438 "/>
<use xlink:href="#surface29" mask="url(#mask8)"/>
<path style=" stroke:none;fill-rule:nonzero;fill:rgb(37.254902%,67.843137%,0%);fill-opacity:1;" d="M 49.300781 223 C 44.800781 225.398438 42.101562 230.199219 42.398438 235.300781 C 42.800781 244.398438 57.699219 235.5 61.699219 227.898438 C 65.699219 220.300781 66.300781 231.199219 66.300781 231.199219 "/>
<use xlink:href="#surface32" mask="url(#mask9)"/>
<path style=" stroke:none;fill-rule:nonzero;fill:rgb(37.254902%,67.843137%,0%);fill-opacity:1;" d="M 62.699219 219.800781 C 59.898438 219.800781 57.101562 220.101562 54.398438 221 C 52.601562 221.398438 50.898438 222.101562 49.199219 223 C 50.101562 223.601562 51.101562 224.199219 52.199219 224.601562 C 54.101562 225.398438 56 226.300781 57 228.101562 C 57.199219 228.5 57.398438 229 57.601562 229.5 C 58.5 232.5 57.699219 236.101562 58.898438 239.101562 C 60.101562 242.101562 62.601562 244.699219 66.199219 245 C 70.398438 245.199219 72.300781 241.199219 73.199219 237.699219 C 74.101562 234.199219 75.199219 229.398438 73.800781 225.800781 C 72.300781 221.5 66.699219 220 62.699219 219.800781 Z M 62.699219 219.800781 "/>
<path style=" stroke:none;fill-rule:nonzero;fill:rgb(37.254902%,67.843137%,0%);fill-opacity:1;" d="M 68.300781 234 C 66.5 228.300781 62.800781 222.898438 57.300781 220.300781 L 57.101562 220.300781 L 56.800781 220.398438 C 56.5 220.5 56.101562 220.601562 55.800781 220.699219 C 62.199219 223.101562 66.199219 229.398438 67.800781 235.800781 C 69.898438 244 69.199219 252.898438 69.199219 261.398438 C 69.199219 261.601562 69.398438 261.800781 69.601562 261.800781 C 69.800781 261.800781 70 261.601562 70 261.398438 C 70.101562 252.300781 71 242.699219 68.300781 234 Z M 68.300781 234 "/>
<use xlink:href="#surface35" mask="url(#mask10)"/>
<path style=" stroke:none;fill-rule:nonzero;fill:rgb(0%,29.803922%,29.803922%);fill-opacity:1;" d="M 367.898438 325.101562 L 294.398438 367.398438 L 115.101562 263.699219 L 188.601562 220.898438 Z M 367.898438 325.101562 "/>
<path style=" stroke:none;fill-rule:nonzero;fill:rgb(100%,74.509804%,70.196078%);fill-opacity:1;" d="M 252.601562 186.699219 C 252.601562 186.699219 227.601562 195.300781 224.601562 200.398438 C 221.601562 205.5 221.199219 234.800781 214.800781 250.800781 C 215.699219 253.199219 218.300781 254.398438 220.699219 253.699219 C 225.199219 252.5 232.300781 226.699219 233.699219 219.101562 C 235.101562 211.5 235.898438 208.898438 235.898438 208.898438 L 259.398438 205.800781 Z M 252.601562 186.699219 "/>
<path style=" stroke:none;fill-rule:nonzero;fill:rgb(1.960784%,3.137255%,9.019608%);fill-opacity:1;" d="M 216.5 251.199219 C 216.5 251.199219 217.898438 246.5 216.699219 244.5 C 215.5 242.5 214.398438 244.101562 213.5 245.898438 C 212.601562 247.699219 212.398438 248.699219 211.800781 249.398438 C 211.199219 250.101562 206 256.601562 203.398438 256.800781 C 200.800781 257 194.800781 257.5 195.699219 261.5 C 196.601562 265.5 204.101562 267.5 210.398438 266.300781 C 216.699219 265.101562 218.398438 261.199219 223.800781 262.898438 C 229.199219 264.601562 231.199219 261.800781 232.101562 260 C 233 258.199219 226.699219 248.898438 226.699219 248.898438 C 226.699219 248.898438 221.199219 252.898438 216.5 251.199219 Z M 216.5 251.199219 "/>
<path style=" stroke:none;fill-rule:nonzero;fill:rgb(100%,74.509804%,70.196078%);fill-opacity:1;" d="M 279.601562 226 C 279.601562 226 284.601562 257.398438 285.5 261.800781 C 286.398438 266.199219 288.398438 308.398438 288 311.199219 C 287.601562 314 291.699219 325.5 297.300781 311.5 C 297.300781 311.5 301.699219 271.101562 301.300781 265.398438 C 300.898438 259.699219 302.398438 225 301.800781 220 "/>
<path style=" stroke:none;fill-rule:nonzero;fill:rgb(1.568627%,47.058824%,46.666667%);fill-opacity:1;" d="M 282.800781 277.5 C 288.898438 279.300781 294.398438 279.898438 300.5 277.5 C 301.398438 277 301.199219 273.300781 301.300781 272.5 C 301.601562 268.699219 301.699219 264.898438 301.800781 261.101562 C 302.199219 249.101562 301.800781 237 303.398438 225.101562 C 304.300781 218.199219 304.199219 211.199219 303.300781 204.300781 C 302.800781 200.601562 302 196.898438 300.800781 193.398438 C 300.199219 191.699219 299.5 190 298.601562 188.398438 C 298.199219 187.699219 296.5 183.898438 295.699219 183.800781 L 268.699219 179.800781 L 227.101562 195.601562 C 227.101562 195.601562 227.101562 204.101562 237.199219 211.199219 C 237.199219 211.199219 265.5 209.300781 272 207.800781 C 272 207.800781 280.898438 271.601562 282.800781 277.5 Z M 282.800781 277.5 "/>
<path style=" stroke:none;fill-rule:nonzero;fill:rgb(100%,74.509804%,70.196078%);fill-opacity:1;" d="M 277.800781 118.800781 C 277.800781 118.800781 263.5 116 260.398438 113.5 C 257.300781 111 252.5 106.5 246.699219 103.800781 C 240.898438 101.101562 229.898438 99 227.101562 96.300781 C 223.601562 92.898438 219.898438 89.800781 215.898438 87 L 209.699219 85.699219 C 209.699219 85.699219 209.800781 88 212.800781 89 C 215.800781 90 217.300781 91.101562 218.101562 92.699219 C 218.898438 94.300781 220.101562 95.699219 218.898438 95.898438 C 217.699219 96.101562 212.699219 94.898438 212.699219 96.101562 C 212.699219 97.300781 217.300781 98.199219 219.5 99.101562 C 221.699219 100 232.398438 108.398438 238.898438 111.699219 C 245.398438 115 262.101562 125.800781 263.300781 128.300781 C 264.199219 130.300781 264.898438 132.5 265.398438 134.601562 C 265.398438 134.601562 294.398438 151.101562 298.199219 151.300781 C 302 151.5 305.5 149.601562 308.300781 151.300781 C 311.101562 153 325.601562 157.398438 331.101562 160.199219 C 336.601562 163 345.5 167.398438 350.101562 168.300781 C 354.699219 169.199219 357.898438 170.300781 359.699219 171.699219 C 361.5 173.101562 363.101562 175.800781 364.601562 177.601562 C 366.101562 179.398438 367.300781 180.898438 367.699219 180.398438 C 368.101562 179.898438 366.800781 177.398438 366 175.398438 C 365.199219 173.398438 365.101562 172.5 366.601562 172.5 C 368.101562 172.5 377 177 378.5 176.398438 C 380 175.800781 373.398438 170.199219 371.601562 168.199219 C 369.800781 166.199219 360.398438 165.199219 358.601562 164.199219 C 356.800781 163.199219 327.199219 148.601562 324.300781 146 C 321.398438 143.398438 307.101562 133.800781 303.199219 130.699219 C 299.300781 127.601562 285.699219 121.199219 277.800781 118.800781 Z M 277.800781 118.800781 "/>
<path style=" stroke:none;fill-rule:nonzero;fill:rgb(0%,29.803922%,29.803922%);fill-opacity:1;" d="M 294.5 178.101562 C 294.5 175.199219 294.800781 172.398438 295.398438 169.601562 C 296.601562 162.5 297.800781 158.699219 298.199219 151.5 C 297.199219 149.699219 297.699219 144.300781 298.300781 141.300781 C 299.800781 133.398438 303.5 131.398438 303.5 131.398438 C 302.800781 130.601562 302 129.800781 301 129.300781 C 300.101562 128.898438 292 132.699219 289.800781 141.699219 C 289.800781 141.699219 273.898438 137.199219 272.699219 135 C 271.5 132.800781 277.199219 121 281.101562 120.300781 C 285 119.601562 277.101562 117.300781 277.101562 117.300781 C 277.101562 117.300781 263.199219 131.800781 262.101562 140.5 C 261 149.199219 266.398438 176.5 268.300781 180.898438 C 270.199219 185.300781 282.398438 193.199219 296 185 C 295.199219 182.5 294.699219 180.300781 294.5 178.101562 Z M 294.5 178.101562 "/>
<path style=" stroke:none;fill-rule:nonzero;fill:rgb(1.960784%,3.137255%,9.019608%);fill-opacity:1;" d="M 306.898438 94.101562 C 306 89.800781 301.898438 87.101562 297.601562 88 C 297.601562 88 297.5 88 297.5 88 C 294.199219 88.5 291.398438 90.398438 289.699219 93.300781 C 282.5 90.800781 274.398438 94.300781 271.398438 98.898438 C 267.601562 104.601562 272 108.601562 272 108.601562 L 285.800781 122.398438 C 288 121.699219 290.199219 120.898438 292.300781 119.800781 C 295.898438 117.898438 298.5 110.699219 298.199219 104.398438 C 299.601562 104.601562 301 104.398438 302.300781 103.800781 C 305.898438 102.199219 307.898438 98.101562 306.898438 94.101562 Z M 306.898438 94.101562 "/>
<path style=" stroke:none;fill-rule:nonzero;fill:rgb(100%,74.509804%,70.196078%);fill-opacity:1;" d="M 272 108.5 C 272 108.5 273.5 127 278.601562 127.898438 C 283.699219 128.800781 287.199219 124.699219 288 122.800781 C 288.5 121.699219 288.699219 120.601562 288.699219 119.5 C 288.699219 119.5 293.300781 117.199219 292.300781 114.5 C 291.300781 111.800781 288.601562 115.601562 287.800781 115.300781 C 287 115 284.898438 114.5 284.601562 110.898438 C 284.300781 107.300781 276.699219 111.398438 272 108.5 Z M 272 108.5 "/>
<path style=" stroke:none;fill-rule:nonzero;fill:rgb(1.960784%,3.137255%,9.019608%);fill-opacity:1;" d="M 284.199219 313 C 284.199219 313 283.800781 308.601562 286.699219 308.601562 C 289.601562 308.601562 292.898438 309.5 293.101562 311.898438 C 293.199219 313.601562 293.199219 315.300781 293.101562 317 C 293.101562 317 297.5 306.800781 298.398438 307 C 299.300781 307.199219 300 310.601562 299.898438 312 C 299.800781 313.398438 297.5 323.601562 296.601562 325.601562 C 295.699219 327.601562 290.601562 334.5 284.199219 334.898438 C 277.800781 335.300781 274.898438 331.101562 276.199219 328.300781 C 277.5 325.5 283.5 320.699219 284.199219 313 Z M 284.199219 313 "/>
<path style=" stroke:none;fill-rule:nonzero;fill:rgb(1.568627%,47.058824%,46.666667%);fill-opacity:1;" d="M 227.101562 195.601562 C 227.101562 195.601562 222 196.699219 221 208.898438 L 234.101562 217.199219 L 237.199219 211.199219 "/>
<path style=" stroke:none;fill-rule:nonzero;fill:rgb(86.666667%,39.607843%,29.019608%);fill-opacity:1;" d="M 293.800781 279 L 295.601562 278.898438 C 297.800781 248.300781 296.398438 217.5 291.199219 187.199219 C 291 186.101562 289.300781 186.5 289.5 187.699219 C 294.601562 217.800781 296 248.5 293.800781 279 Z M 293.800781 279 "/>
<use xlink:href="#surface38" mask="url(#mask11)"/>
</g>
</svg>
