<svg width="30" height="30" viewBox="0 0 30 30" fill="none" xmlns="http://www.w3.org/2000/svg">
<path d="M14.0079 2.8125C11.3137 2.8125 9.21949 2.8125 7.58926 3.00481C5.94042 3.20098 4.63461 3.6074 3.59275 4.52538C2.52298 5.469 2.02298 6.69597 1.78693 8.24346C1.56252 9.72043 1.56252 11.6 1.56252 13.9437V14.1783C1.56252 16.463 1.56252 18.0438 1.79507 19.222C1.92065 19.8567 2.11833 20.408 2.42879 20.9182C2.73577 21.4208 3.12647 21.8439 3.59275 22.2542C4.32647 22.9017 5.19158 23.2927 6.21368 23.5363V26.8518C6.21381 27.0203 6.25409 27.1857 6.33047 27.3316C6.40685 27.4775 6.51666 27.5988 6.6489 27.6831C6.78114 27.7675 6.93116 27.8121 7.08395 27.8125C7.23674 27.8128 7.38694 27.7689 7.51949 27.6851C8.20089 27.2556 8.80438 26.7877 9.3567 26.3466L9.71019 26.0633C10.1035 25.7386 10.5052 25.4265 10.9148 25.1274C11.8962 24.4248 12.8334 23.9671 14.0625 23.9671H14.1172C16.8114 23.9671 18.9055 23.9671 20.5358 23.7748C22.1846 23.5786 23.4904 23.1722 24.5323 22.2542C24.9974 21.8439 25.3893 21.4208 25.6951 20.9182C26.0067 20.408 26.2044 19.8567 26.33 19.222C26.5625 18.0438 26.5625 16.463 26.5625 14.1783V13.9437C26.5625 11.6 26.5625 9.72043 26.3381 8.24474C26.102 6.69597 25.602 5.469 24.5323 4.52538C23.4904 3.60612 22.1846 3.20097 20.5358 3.0061C18.9055 2.8125 16.8114 2.8125 14.1172 2.8125H14.0079Z" fill="#F7F9FC"/>
</svg>
