<svg width="30" height="30" viewBox="0 0 30 30" fill="none" xmlns="http://www.w3.org/2000/svg">
<g clip-path="url(#clip0_43_105)">
<path d="M6.57 0H23.43C27.0586 0 30 2.94141 30 6.57V23.43C30 27.0586 27.0586 30 23.43 30H6.57C2.94141 30 0 27.0586 0 23.43V6.57C0 2.94141 2.94141 0 6.57 0Z" fill="url(#paint0_linear_43_105)"/>
<path d="M9.61428 21.7746L9.6171 21.7755L8.59135 23.5521C8.21694 24.2006 7.38772 24.4228 6.7392 24.0483C6.09069 23.6739 5.8685 22.8447 6.24292 22.1962L6.99854 20.8874L7.07108 20.7618C7.20057 20.5757 7.52014 20.2544 8.1594 20.3149C8.1594 20.3149 9.66374 20.4781 9.7726 21.26C9.7726 21.26 9.78737 21.5172 9.61428 21.7746ZM24.1623 17.2371H20.9638C20.7459 17.2224 20.6509 17.1446 20.6134 17.0994L20.611 17.0953L17.1872 11.1649L17.1827 11.1678L16.9774 10.8734C16.6408 10.3587 16.1065 11.675 16.1065 11.675C15.4684 13.1417 16.1971 14.8092 16.451 15.3132L21.2067 23.5503C21.581 24.1987 22.4102 24.421 23.0589 24.0465C23.7073 23.6721 23.9296 22.8428 23.555 22.1943L22.3659 20.1346C22.3428 20.0847 22.3028 19.9492 22.5466 19.9487H24.1623C24.9111 19.9487 25.5182 19.3416 25.5182 18.5928C25.5182 17.844 24.9111 17.2371 24.1623 17.2371ZM17.9497 19.0801C17.9497 19.0801 18.1205 19.9485 17.4599 19.9485H5.63577C4.88694 19.9485 4.27991 19.3415 4.27991 18.5927C4.27991 17.8439 4.88694 17.2368 5.63577 17.2368H8.67561C9.16639 17.2085 9.28264 16.9251 9.28264 16.9251L9.28545 16.9265L13.2534 10.0537L13.2523 10.0535C13.3246 9.92069 13.2643 9.79518 13.2539 9.77537L11.9434 7.50557C11.569 6.85717 11.7912 6.02783 12.4397 5.65354C13.0882 5.27924 13.9174 5.50119 14.2918 6.14971L14.8996 7.2024L15.5062 6.15158C15.8807 5.50319 16.7099 5.28088 17.3584 5.65541C18.0069 6.02994 18.2291 6.85893 17.8547 7.50744L12.333 17.0711C12.3089 17.1294 12.3015 17.2208 12.4812 17.2368H15.7816L15.7823 17.269C15.7823 17.269 17.6899 17.2987 17.9497 19.0801Z" fill="white"/>
</g>
<defs>
<linearGradient id="paint0_linear_43_105" x1="1500" y1="0" x2="1500" y2="3000" gradientUnits="userSpaceOnUse">
<stop stop-color="#17C9FB"/>
<stop offset="1" stop-color="#1A74E8"/>
</linearGradient>
<clipPath id="clip0_43_105">
<rect width="30" height="30" fill="white"/>
</clipPath>
</defs>
</svg>
