<svg width="27" height="30" viewBox="0 0 27 30" fill="none" xmlns="http://www.w3.org/2000/svg">
<g clip-path="url(#clip0_43_121)">
<path d="M19.6298 10.8022C21.5621 12.1827 23.9292 12.995 26.4857 12.995V8.07809C26.0018 8.07828 25.5192 8.0278 25.0459 7.92747V11.7978C22.4896 11.7978 20.1228 10.9856 18.1902 9.60519V19.6393C18.1902 24.6589 14.1188 28.7277 9.09705 28.7277C7.22329 28.7277 5.48164 28.1615 4.03491 27.1905C5.68615 28.878 7.98891 29.9248 10.5364 29.9248C15.5586 29.9248 19.63 25.856 19.63 20.8362V10.8022H19.6298ZM21.406 5.84164C20.4185 4.7634 19.7701 3.36995 19.6298 1.8294V1.19702H18.2655C18.6089 3.15499 19.7805 4.82775 21.406 5.84164ZM7.21119 23.3387C6.65943 22.6158 6.3612 21.7312 6.3626 20.8218C6.3626 18.5261 8.22477 16.6646 10.5223 16.6646C10.9503 16.6644 11.3759 16.7301 11.784 16.8594V11.8325C11.3071 11.7673 10.8259 11.7394 10.3448 11.7497V15.6623C9.93655 15.5329 9.51076 15.4673 9.08246 15.4676C6.78508 15.4676 4.92302 17.3288 4.92302 19.6249C4.92302 21.2484 5.85374 22.654 7.21119 23.3387Z" fill="#FF004F"/>
<path d="M18.1901 9.60509C20.1228 10.9855 22.4894 11.7977 25.0458 11.7977V7.92737C23.6189 7.62354 22.3557 6.8783 21.4059 5.84164C19.7802 4.82764 18.6089 3.15488 18.2654 1.19702H14.6817V20.836C14.6735 23.1255 12.8145 24.9793 10.522 24.9793C9.17119 24.9793 7.97099 24.3357 7.21095 23.3386C5.85371 22.654 4.92288 21.2483 4.92288 19.625C4.92288 17.3292 6.78495 15.4677 9.08233 15.4677C9.5225 15.4677 9.94675 15.5362 10.3447 15.6624V11.7498C5.41106 11.8517 1.4433 15.8808 1.4433 20.8361C1.4433 23.3097 2.43133 25.5522 4.03499 27.1907C5.48171 28.1615 7.22326 28.7279 9.09713 28.7279C14.119 28.7279 18.1902 24.6588 18.1902 19.6393L18.1901 9.60509Z" fill="black"/>
<path d="M25.0458 7.92724V6.88097C23.7591 6.88283 22.4977 6.52266 21.4059 5.84162C22.3723 6.89908 23.6449 7.62831 25.0458 7.92745M18.2653 1.1969C18.2326 1.00982 18.2075 0.821491 18.19 0.632379V0H13.2417V19.6391C13.2338 21.9284 11.3748 23.7822 9.08222 23.7822C8.43228 23.7832 7.79123 23.6313 7.21084 23.3388C7.97088 24.3357 9.17108 24.9791 10.5219 24.9791C12.8143 24.9791 14.6735 23.1256 14.6816 20.836V1.197L18.2653 1.1969ZM10.3449 11.7497V10.6356C9.93141 10.5792 9.51456 10.5509 9.09722 10.551C4.07481 10.551 0.00360107 14.62 0.00360107 19.6391C0.00360107 22.7859 1.60364 25.5592 4.03508 27.1904C2.43143 25.552 1.44339 23.3095 1.44339 20.8359C1.44339 15.8808 5.41105 11.8516 10.3449 11.7497Z" fill="#00F2EA"/>
</g>
<defs>
<clipPath id="clip0_43_121">
<rect width="26.49" height="30" fill="white"/>
</clipPath>
</defs>
</svg>
