<svg width="60" height="64" viewBox="0 0 60 64" fill="none" xmlns="http://www.w3.org/2000/svg">
<circle cx="30" cy="32.4897" r="30" fill="#BAC8D9"/>
<path fill-rule="evenodd" clip-rule="evenodd" d="M41.3407 17.1637C41.5595 16.945 41.8561 16.8221 42.1655 16.8221C42.4749 16.8221 42.7716 16.945 42.9903 17.1637L47.657 21.8304C47.7657 21.9388 47.8519 22.0675 47.9107 22.2092C47.9695 22.351 47.9998 22.5029 47.9998 22.6564C47.9998 22.8099 47.9695 22.9618 47.9107 23.1035C47.8519 23.2453 47.7657 23.374 47.657 23.4824L38.459 32.6804C38.2817 32.8583 38.0769 33.0064 37.8523 33.1191L28.6893 37.6994C28.4705 37.8086 28.2229 37.8463 27.9815 37.8071C27.74 37.768 27.517 37.6539 27.344 37.4811C27.1709 37.3083 27.0565 37.0855 27.017 36.8441C26.9774 36.6027 27.0148 36.3551 27.1237 36.1361L31.704 26.9707C31.8166 26.7462 31.9648 26.5414 32.1427 26.3641L41.3407 17.1637ZM42.1667 19.6394L33.79 28.0161L31.3703 32.8601L31.963 33.4527L36.8093 31.0307L45.1837 22.6564L42.1667 19.6394ZM36.3333 19.1564L34 21.4897H24.4333C23.4347 21.4897 22.7533 21.4897 22.2307 21.5341C21.7173 21.5761 21.456 21.6507 21.274 21.7441C20.835 21.9678 20.478 22.3247 20.2543 22.7637C20.161 22.9457 20.0863 23.2071 20.0443 23.7204C20 24.2431 20 24.9244 20 25.9231V40.3897C20 41.3884 20 42.0697 20.0443 42.5924C20.0863 43.1057 20.161 43.3671 20.2543 43.5491C20.478 43.9881 20.835 44.345 21.274 44.5687C21.456 44.6621 21.7173 44.7367 22.2307 44.7787C22.7557 44.8231 23.4347 44.8231 24.4333 44.8231H38.9C39.8987 44.8231 40.58 44.8231 41.1027 44.7787C41.616 44.7367 41.8773 44.6621 42.0593 44.5687C42.4984 44.345 42.8553 43.9881 43.079 43.5491C43.1723 43.3671 43.247 43.1057 43.289 42.5924C43.3333 42.0674 43.3333 41.3884 43.3333 40.3897V30.8231L45.6667 28.4897V40.4364C45.6667 41.3767 45.6667 42.1514 45.6153 42.7837C45.5617 43.4394 45.4473 44.0437 45.158 44.6084C44.7106 45.4864 43.9967 46.2003 43.1187 46.6477C42.5517 46.9371 41.9497 47.0514 41.294 47.1051C40.664 47.1564 39.887 47.1564 38.949 47.1564H24.3867C23.4463 47.1564 22.6717 47.1564 22.0393 47.1051C21.3837 47.0514 20.7793 46.9371 20.2147 46.6477C19.3366 46.2003 18.6227 45.4864 18.1753 44.6084C17.886 44.0414 17.7717 43.4394 17.718 42.7837C17.6667 42.1537 17.6667 41.3767 17.6667 40.4364V25.8764C17.6667 24.9361 17.6667 24.1614 17.718 23.5291C17.7717 22.8734 17.886 22.2691 18.1753 21.7044C18.6227 20.8263 19.3366 20.1125 20.2147 19.6651C20.7817 19.3757 21.3837 19.2614 22.0393 19.2077C22.6693 19.1564 23.4463 19.1564 24.3867 19.1564H36.3333Z" fill="#193940"/>
</svg>
