<svg width="60" height="64" viewBox="0 0 60 64" fill="none" xmlns="http://www.w3.org/2000/svg">
<circle cx="30" cy="32.4897" r="30" fill="#BAC8D9"/>
<path d="M39.25 41.469C40.4604 41.469 41.4375 40.4919 41.4375 39.2815C41.4375 38.071 40.4604 37.094 39.25 37.094C38.0396 37.094 37.0625 38.071 37.0625 39.2815C37.0625 40.4919 38.0396 41.469 39.25 41.469ZM41.4375 28.344H37.7917V31.9898H44.2958L41.4375 28.344ZM21.75 41.469C22.9604 41.469 23.9375 40.4919 23.9375 39.2815C23.9375 38.071 22.9604 37.094 21.75 37.094C20.5396 37.094 19.5625 38.071 19.5625 39.2815C19.5625 40.4919 20.5396 41.469 21.75 41.469ZM42.1667 26.1565L46.5417 31.9898V39.2815H43.625C43.625 41.7023 41.6708 43.6565 39.25 43.6565C36.8292 43.6565 34.875 41.7023 34.875 39.2815H26.125C26.125 41.7023 24.1708 43.6565 21.75 43.6565C19.3292 43.6565 17.375 41.7023 17.375 39.2815H14.4583V23.2398C14.4583 21.621 15.7563 20.3231 17.375 20.3231H37.7917V26.1565H42.1667ZM17.375 23.2398V36.3648H18.4833C19.2854 35.4752 20.4521 34.9065 21.75 34.9065C23.0479 34.9065 24.2146 35.4752 25.0167 36.3648H34.875V23.2398H17.375Z" fill="#193940"/>
</svg>
