<svg width="30" height="30" viewBox="0 0 30 30" fill="none" xmlns="http://www.w3.org/2000/svg">
<path d="M23.3334 27.5C22.176 27.5 21.1922 27.1354 20.382 26.4062C19.5718 25.6771 19.1667 24.7917 19.1667 23.75C19.1667 23.625 19.2014 23.3333 19.2709 22.875L9.51392 17.75C9.14355 18.0625 8.71531 18.3075 8.2292 18.485C7.74309 18.6625 7.22225 18.7508 6.6667 18.75C5.50929 18.75 4.52549 18.3854 3.71531 17.6562C2.90512 16.9271 2.50003 16.0417 2.50003 15C2.50003 13.9583 2.90512 13.0729 3.71531 12.3438C4.52549 11.6146 5.50929 11.25 6.6667 11.25C7.22225 11.25 7.74309 11.3388 8.2292 11.5163C8.71531 11.6938 9.14355 11.9383 9.51392 12.25L19.2709 7.125C19.2246 6.97917 19.1959 6.83875 19.1848 6.70375C19.1736 6.56875 19.1676 6.4175 19.1667 6.25C19.1667 5.20833 19.5718 4.32292 20.382 3.59375C21.1922 2.86458 22.176 2.5 23.3334 2.5C24.4908 2.5 25.4746 2.86458 26.2848 3.59375C27.0949 4.32292 27.5 5.20833 27.5 6.25C27.5 7.29167 27.0949 8.17708 26.2848 8.90625C25.4746 9.63542 24.4908 10 23.3334 10C22.7778 10 22.257 9.91125 21.7709 9.73375C21.2848 9.55625 20.8565 9.31167 20.4861 9L10.7292 14.125C10.7755 14.2708 10.8047 14.4117 10.8167 14.5475C10.8287 14.6833 10.8343 14.8342 10.8334 15C10.8324 15.1658 10.8269 15.3171 10.8167 15.4537C10.8065 15.5904 10.7773 15.7308 10.7292 15.875L20.4861 21C20.8565 20.6875 21.2848 20.4429 21.7709 20.2662C22.257 20.0896 22.7778 20.0008 23.3334 20C24.4908 20 25.4746 20.3646 26.2848 21.0938C27.0949 21.8229 27.5 22.7083 27.5 23.75C27.5 24.7917 27.0949 25.6771 26.2848 26.4062C25.4746 27.1354 24.4908 27.5 23.3334 27.5Z" fill="#F7F9FC"/>
</svg>
