<svg width="120" height="120" viewBox="0 0 120 120" fill="none" xmlns="http://www.w3.org/2000/svg">
<circle cx="60" cy="60" r="59.5" fill="#F8F9FA" stroke="#333333"/>
<path d="M83.3333 48.3333L60 62.9166L36.6667 48.3333V42.5L60 57.0833L83.3333 42.5M83.3333 36.6666H36.6667C33.4292 36.6666 30.8333 39.2625 30.8333 42.5V77.5C30.8333 79.0471 31.4479 80.5308 32.5419 81.6247C33.6358 82.7187 35.1196 83.3333 36.6667 83.3333H83.3333C84.8804 83.3333 86.3642 82.7187 87.4581 81.6247C88.5521 80.5308 89.1667 79.0471 89.1667 77.5V42.5C89.1667 40.9529 88.5521 39.4691 87.4581 38.3752C86.3642 37.2812 84.8804 36.6666 83.3333 36.6666Z" fill="#007BFF"/>
</svg>
