<svg width="60" height="64" viewBox="0 0 60 64" fill="none" xmlns="http://www.w3.org/2000/svg">
<circle cx="30" cy="32.4897" r="30" fill="#7ABF5A"/>
<path d="M33.4167 41.2064C31.8261 40.4376 30.46 39.2725 29.45 37.823H17.375V20.323H43.625V23.6189C44.8051 24.4494 45.7985 25.5173 46.5417 26.7543V20.323C46.5417 19.5495 46.2344 18.8076 45.6874 18.2606C45.1404 17.7137 44.3985 17.4064 43.625 17.4064H17.375C16.6014 17.4064 15.8596 17.7137 15.3126 18.2606C14.7656 18.8076 14.4583 19.5495 14.4583 20.323V37.823C14.4583 38.5966 14.7656 39.3385 15.3126 39.8854C15.8596 40.4324 16.6014 40.7397 17.375 40.7397H27.5833V43.6564H24.6667V46.573H36.3333V43.6564H33.4167V41.2064Z" fill="#193940"/>
<path d="M37.7917 23.2397C36.0611 23.2397 34.3693 23.7529 32.9304 24.7144C31.4915 25.6758 30.37 27.0424 29.7077 28.6413C29.0454 30.2401 28.8722 31.9995 29.2098 33.6968C29.5474 35.3941 30.3808 36.9532 31.6045 38.1769C32.8282 39.4006 34.3873 40.234 36.0846 40.5716C37.782 40.9092 39.5413 40.736 41.1401 40.0737C42.739 39.4114 44.1056 38.2899 45.067 36.851C46.0285 35.4121 46.5417 33.7203 46.5417 31.9897C46.5417 29.6691 45.6198 27.4435 43.9788 25.8026C42.3379 24.1616 40.1123 23.2397 37.7917 23.2397ZM37.7917 34.1772C37.359 34.1772 36.9361 34.049 36.5764 33.8086C36.2166 33.5682 35.9362 33.2266 35.7707 32.8269C35.6051 32.4272 35.5618 31.9873 35.6462 31.563C35.7306 31.1387 35.9389 30.7489 36.2449 30.4429C36.5508 30.137 36.9406 29.9287 37.3649 29.8443C37.7892 29.7599 38.2291 29.8032 38.6288 29.9688C39.0285 30.1343 39.3701 30.4147 39.6105 30.7744C39.8509 31.1342 39.9792 31.5571 39.9792 31.9897C39.9792 32.5699 39.7487 33.1263 39.3385 33.5365C38.9282 33.9468 38.3718 34.1772 37.7917 34.1772Z" fill="#193940"/>
</svg>
