<svg width="15" height="16" viewBox="0 0 15 16" fill="none" xmlns="http://www.w3.org/2000/svg">
<path d="M7.53251 9.75789L8.41626 10.6416L11.0688 7.98977L8.41688 5.33789L7.53313 6.22227L8.67501 7.36477H3.96438V8.61477H8.67501L7.53251 9.75789Z" fill="#193940"/>
<path fill-rule="evenodd" clip-rule="evenodd" d="M12.3612 12.851C15.0462 10.166 15.0462 5.8135 12.3612 3.1285C9.67625 0.443496 5.32375 0.443496 2.63875 3.1285C-0.0462499 5.8135 -0.0462499 10.166 2.63875 12.851C5.32375 15.536 9.67625 15.536 12.3612 12.851ZM11.4775 11.9672C12.5324 10.9123 13.125 9.4816 13.125 7.98975C13.125 6.49789 12.5324 5.06714 11.4775 4.01225C10.4226 2.95735 8.99185 2.36471 7.5 2.36471C6.00815 2.36471 4.5774 2.95735 3.5225 4.01225C2.4676 5.06714 1.87497 6.49789 1.87497 7.98975C1.87497 9.4816 2.4676 10.9123 3.5225 11.9672C4.5774 13.0221 6.00815 13.6148 7.5 13.6148C8.99185 13.6148 10.4226 13.0221 11.4775 11.9672Z" fill="#193940"/>
</svg>
