<svg id="_0364_customer_service_1" xmlns="http://www.w3.org/2000/svg" xmlns:xlink="http://www.w3.org/1999/xlink" viewBox="0 0 500 500" data-imageid="customer-service-1-12" imageName="Customer Service 1" class="illustrations_image" style="width: 188px;"><defs><style>.cls-1_customer-service-1-12{fill:url(#linear-gradient);}.cls-1_customer-service-1-12,.cls-2_customer-service-1-12,.cls-3_customer-service-1-12,.cls-4_customer-service-1-12,.cls-5_customer-service-1-12,.cls-6_customer-service-1-12,.cls-7_customer-service-1-12,.cls-8_customer-service-1-12,.cls-9_customer-service-1-12,.cls-10_customer-service-1-12,.cls-11_customer-service-1-12,.cls-12_customer-service-1-12,.cls-13_customer-service-1-12,.cls-14_customer-service-1-12,.cls-15_customer-service-1-12,.cls-16_customer-service-1-12,.cls-17_customer-service-1-12,.cls-18_customer-service-1-12,.cls-19_customer-service-1-12,.cls-20_customer-service-1-12,.cls-21_customer-service-1-12,.cls-22_customer-service-1-12{stroke-width:0px;}.cls-2_customer-service-1-12{opacity:.18;}.cls-2_customer-service-1-12,.cls-10_customer-service-1-12{isolation:isolate;}.cls-2_customer-service-1-12,.cls-10_customer-service-1-12,.cls-22_customer-service-1-12{fill:#68e1fd;}.cls-3_customer-service-1-12{fill:url(#linear-gradient-11-customer-service-1-12);}.cls-4_customer-service-1-12{fill:url(#linear-gradient-12-customer-service-1-12);}.cls-5_customer-service-1-12{fill:url(#linear-gradient-13-customer-service-1-12);}.cls-6_customer-service-1-12{fill:url(#linear-gradient-10-customer-service-1-12);}.cls-7_customer-service-1-12{fill:url(#linear-gradient-16-customer-service-1-12);}.cls-8_customer-service-1-12{fill:url(#linear-gradient-15-customer-service-1-12);}.cls-9_customer-service-1-12{fill:url(#linear-gradient-14-customer-service-1-12);}.cls-10_customer-service-1-12{opacity:.42;}.cls-11_customer-service-1-12{fill:url(#linear-gradient-4-customer-service-1-12);}.cls-12_customer-service-1-12{fill:url(#linear-gradient-2-customer-service-1-12);}.cls-13_customer-service-1-12{fill:url(#linear-gradient-3-customer-service-1-12);}.cls-14_customer-service-1-12{fill:url(#linear-gradient-8-customer-service-1-12);}.cls-15_customer-service-1-12{fill:url(#linear-gradient-9-customer-service-1-12);}.cls-16_customer-service-1-12{fill:url(#linear-gradient-7-customer-service-1-12);}.cls-17_customer-service-1-12{fill:url(#linear-gradient-5-customer-service-1-12);}.cls-18_customer-service-1-12{fill:url(#linear-gradient-6-customer-service-1-12);}.cls-20_customer-service-1-12{fill:#c14834;}.cls-21_customer-service-1-12{fill:#ffaa71;}</style><linearGradient id="linear-gradient-customer-service-1-12" x1="907.48" y1="3049.9" x2="929.22" y2="3058.9" gradientTransform="translate(-483.83 3362.98) scale(1 -1)" gradientUnits="userSpaceOnUse"><stop offset="0" stop-color="#000"/><stop offset=".09" stop-color="#000" stop-opacity=".82"/><stop offset="1" stop-color="#000" stop-opacity="0"/></linearGradient><linearGradient id="linear-gradient-2-customer-service-1-12" x1="220.16" y1="305.53" x2="289.23" y2="381.11" gradientUnits="userSpaceOnUse"><stop offset="0" stop-color="#000"/><stop offset=".12" stop-color="#000" stop-opacity=".75"/><stop offset="1" stop-color="#000" stop-opacity="0"/></linearGradient><linearGradient id="linear-gradient-3-customer-service-1-12" x1="793.88" y1="3134.34" x2="786.16" y2="2986.66" xlink:href="#linear-gradient-customer-service-1-12"/><linearGradient id="linear-gradient-4-customer-service-1-12" x1="327.74" y1="271.8" x2="312.76" y2="430.79" xlink:href="#linear-gradient-2-customer-service-1-12"/><linearGradient id="linear-gradient-5-customer-service-1-12" x1="524.61" y1="416.03" x2="309.59" y2="393.88" xlink:href="#linear-gradient-2-customer-service-1-12"/><linearGradient id="linear-gradient-6-customer-service-1-12" x1="782.46" y1="3089.96" x2="801.98" y2="3053.91" xlink:href="#linear-gradient-customer-service-1-12"/><linearGradient id="linear-gradient-7-customer-service-1-12" x1="722.41" y1="3134.87" x2="742.68" y2="3120.71" gradientTransform="translate(-471 3365.8) scale(1 -1)" xlink:href="#linear-gradient-customer-service-1-12"/><linearGradient id="linear-gradient-8-customer-service-1-12" x1="751.81" y1="3142.38" x2="714.47" y2="3098.93" gradientTransform="translate(-471 3365.8) scale(1 -1)" xlink:href="#linear-gradient-customer-service-1-12"/><linearGradient id="linear-gradient-9-customer-service-1-12" x1="815.93" y1="3132.79" x2="799.95" y2="3107.57" gradientTransform="translate(-471 3365.8) scale(1 -1)" xlink:href="#linear-gradient-customer-service-1-12"/><linearGradient id="linear-gradient-10-customer-service-1-12" x1="836.06" y1="3138.36" x2="748.84" y2="3085.9" gradientTransform="translate(-471 3365.8) scale(1 -1)" xlink:href="#linear-gradient-customer-service-1-12"/><linearGradient id="linear-gradient-11-customer-service-1-12" x1="834.83" y1="3173.35" x2="779.16" y2="3168.53" xlink:href="#linear-gradient-customer-service-1-12"/><linearGradient id="linear-gradient-12-customer-service-1-12" x1="357.63" y1="267.47" x2="374.57" y2="411.47" xlink:href="#linear-gradient-2-customer-service-1-12"/><linearGradient id="linear-gradient-13-customer-service-1-12" x1="798.16" y1="3109.59" x2="809.9" y2="3085.45" gradientTransform="translate(-483.83 3362.98) scale(1 -1)" gradientUnits="userSpaceOnUse"><stop offset=".02" stop-color="#fff" stop-opacity="0"/><stop offset=".58" stop-color="#fff" stop-opacity=".39"/><stop offset=".68" stop-color="#fff" stop-opacity=".68"/><stop offset="1" stop-color="#fff"/></linearGradient><linearGradient id="linear-gradient-14-customer-service-1-12" x1="785.77" y1="3102.35" x2="771.61" y2="3073.81" gradientTransform="translate(-483.83 3362.98) scale(1 -1)" gradientUnits="userSpaceOnUse"><stop offset="0" stop-color="#000"/><stop offset="1" stop-color="#000" stop-opacity="0"/></linearGradient><linearGradient id="linear-gradient-15-customer-service-1-12" x1="4189" y1="2891.34" x2="4189.86" y2="2930.39" gradientTransform="translate(4444.19 3362.98) rotate(-180)" xlink:href="#linear-gradient-2-customer-service-1-12"/><linearGradient id="linear-gradient-16-customer-service-1-12" x1="4250.35" y1="2867.24" x2="4256.14" y2="3013.98" gradientTransform="translate(4444.19 3362.98) rotate(-180)" xlink:href="#linear-gradient-2-customer-service-1-12"/></defs><g id="background_customer-service-1-12"><path class="cls-2_customer-service-1-12 targetColor" d="M490.14,333.63c-.08,15.69-5.73,30.86-13.05,44.78-15.49,29.31-40.37,54.4-69.68,69.4l3.06-.69c-47.96,35.38-130.64,5.94-190.13,9.28-33.96,1.91-67.92,6.59-101.85,4.36-33.93-2.23-51,13.59-75.71-9.79-32.24-30.55-40.42-80.17-27.2-122.79,3.25-10.59,7.87-20.71,13.75-30.09,4.59-7.18,9.68-14.02,15.24-20.47,23.2-27.23,52.83-49.54,71.17-80.34,18.67-31.36,24.17-69.18,42.8-100.57,38.48-64.83,122.22-86.19,187.05-47.71,7.95,4.72,15.39,10.23,22.23,16.45,10.43,9.51,19.38,20.69,24.4,33.82,5.39,14.07,5.95,29.49,10.35,43.89,6.4,20.98,20.55,38.55,32.37,57.04,16.22,25.37,28.35,53.1,40.42,80.69,7.37,16.84,14.88,34.33,14.79,52.75Z" style="fill: rgb(185, 255, 103);"/><path class="cls-10_customer-service-1-12 targetColor" d="M387.11,143.06l-21.66,63.77-16.63-1.09,6.72-36.03-157.43,113.8-51.45-47.98L15.58,328.18c3.25-10.59,7.87-20.71,13.75-30.09,4.59-7.18,9.68-14.02,15.24-20.47l104.05-70.78,52.96,46.47,142.66-97.24-35.67-8.43-.7-18.94,79.24,14.37Z" style="fill: rgb(185, 255, 103);"/></g><g id="character_customer-service-1-12"><path class="cls-21_customer-service-1-12" d="M431.61,305.56c.5-2.42,1.36-4.75,2.56-6.91.58-.97,1.31-1.83,2.18-2.56,1.27-.99,3.1-.76,4.09.51.23.29.4.63.5.98,1.16,4.48.79,9.34.38,14-.04,1.5-.35,2.99-.91,4.39-1.73,3.66-8.1,5.3-10.56,1.36-1.83-3.03.99-8.75,1.75-11.77Z"/><path class="cls-1_customer-service-1-12" d="M431.61,305.56c.5-2.42,1.36-4.75,2.56-6.91.29-.49.62-.96.99-1.39,1.29-1.48,3.54-1.64,5.02-.35.59.51.99,1.2,1.15,1.96.61,4.2.64,8.46.09,12.67-.04,1.5-.35,2.99-.91,4.39-1.73,3.66-8.1,5.3-10.56,1.36-1.92-2.98.9-8.7,1.66-11.72Z"/><path class="cls-21_customer-service-1-12" d="M224.4,427.44c-1.11,3.26-2.14,6.99-.49,10.01,1.1,1.68,2.59,3.08,4.34,4.08l15.74,10.68c3.02,2.05,6.22,4.17,9.85,4.44s7.74-2.03,8.05-5.67c.36-4.2-4.03-7.05-6.08-10.72-2.7-4.82-1.22-10.79.19-16.11,3.53-13.45,6.1-27.13,7.68-40.94-3.22-1.28-12.62-7.23-15.9-6.26-3.84,1.13-7.17,11.67-8.84,15.1-5.67,11.44-10.53,23.27-14.54,35.39Z"/><path class="cls-19_customer-service-1-12" d="M289.95,165.28c3.38-2.01,6.85-4.04,10.7-4.8,3.85-.75,8.25,0,10.89,2.92-6.6.38-12.69,3.66-16.63,8.96-.2.34-.51.6-.88.74-.31.03-.63-.02-.91-.17-1.59-.6-8.2-1.28-8.89-2.64-1.02-2.25,4.24-4.13,5.73-5.02Z"/><path class="cls-20_customer-service-1-12" d="M261.8,237.24c1.28,18.89,4.38,38.03.67,56.59-2.5,12.51-8.06,25.1-5.3,37.55,3.03,13.72,17.2,24.02,31.17,22.67,8.85-.86,16.77-5.66,25.24-8.37,7.12-2.28,14.64-3.08,22.08-2.34,6.67.67,13.88,2.44,19.69-.88,4.84-2.76,7.32-8.53,7.57-14.07.26-5.54-1.28-11.02-2.96-16.35-3.31-10.94-6.81-22.11-6.4-33.54.33-8.2,2.7-16.16,4.38-24.2,3.02-14.41,3.84-29.75-1.37-43.5-5.21-13.75-17.16-25.59-31.77-27.45-7.52-.92-15.19.79-22.69-.27-6.62-.93-12.79-3.99-19.31-5.32-2.27-.59-4.65-.57-6.91.06-7.86,2.73-11.59,19.72-12.95,26.73-2.09,10.71-1.98,21.79-1.16,32.68Z"/><path class="cls-22_customer-service-1-12 targetColor" d="M254.58,337.25c-4.07,11.59-8.41,23.22-14.94,33.64-.48.52-.44,1.33.08,1.81.06.06.13.11.2.15,6.58,5.76,13.68,11.76,22.33,13,.56.13,1.15.08,1.69-.14.5-.35.87-.86,1.06-1.45,5.51-12.79,7.45-26.78,7.28-40.62-.12-6.91-.67-13.81-1.64-20.65-.23-1.68-.36-9.06-1.8-9.92-2.21-1.28-4.63,3.22-5.58,4.66-4,5.91-6.32,12.78-8.68,19.53Z" style="fill: rgb(185, 255, 103);"/><path class="cls-12_customer-service-1-12" d="M254.58,337.25c-4.07,11.59-8.41,23.22-14.94,33.64-.48.52-.44,1.33.08,1.81.06.06.13.11.2.15,6.58,5.76,13.68,11.76,22.33,13,.56.13,1.15.08,1.69-.14.5-.35.87-.86,1.06-1.45,5.51-12.79,7.45-26.78,7.28-40.62-.12-6.91-.67-13.81-1.64-20.65-.23-1.68-.36-9.06-1.8-9.92-2.21-1.28-4.63,3.22-5.58,4.66-4,5.91-6.32,12.78-8.68,19.53Z"/><path class="cls-13_customer-service-1-12" d="M272.19,237.24c.92,18.89,3.08,38.03.47,56.59-1.77,12.51-5.69,25.1-3.75,37.55,2.15,13.72,12.13,24.02,21.98,22.67,6.23-.86,11.81-5.66,17.79-8.37,4.86-2.26,10.26-3.07,15.57-2.34,4.7.67,9.78,2.44,13.87-.88,3.4-2.76,5.12-8.53,5.35-14.07-.03-5.52-.73-11.01-2.09-16.35-2.34-10.94-4.81-22.11-4.48-33.54.23-8.2,1.89-16.16,3.08-24.2,2.12-14.41,2.67-29.75-.96-43.5s-12.1-25.59-22.4-27.45c-5.28-.92-10.7.79-15.98-.27-4.66-.93-8.96-3.99-13.61-5.32-1.57-.59-3.31-.57-4.86.06-5.54,2.73-8.16,19.72-9.12,26.73-1.28,10.84-1.57,21.78-.86,32.68Z"/><path class="cls-22_customer-service-1-12 targetColor" d="M316.3,300.21c8.41-.48,16.85.34,25.01,2.43,8.1,2.29,15.79,6.59,21.1,13.11,5.89,7.23,8.46,16.63,9.06,25.97.6,9.34-.64,18.6-1.57,27.88-2.19,21.72-2.76,43.58-1.73,65.38.26,5.22.35,11.12-3.33,14.84-2.32,2.35-5.68,3.3-8.89,4.07-26.56,6.4-55.35,7.51-80.51-3.15-6.4-2.71-12.79-6.49-15.96-12.65-3.43-6.7-2.32-14.71-1.22-22.16,3.36-22.72,5.78-45.56,7.25-68.5.65-10.16-.1-21.11,1.98-31.09,1.51-7.23,6.18-9.21,12.91-10.98,11.73-3.06,23.76-4.79,35.88-5.16Z" style="fill: rgb(185, 255, 103);"/><path class="cls-11_customer-service-1-12" d="M316.3,300.21c8.41-.48,16.85.34,25.01,2.43,8.1,2.29,15.79,6.59,21.1,13.11,5.89,7.23,8.46,16.63,9.06,25.97.6,9.34-.64,18.6-1.57,27.88-2.19,21.72-2.76,43.58-1.73,65.38.26,5.22.35,11.12-3.33,14.84-2.32,2.35-5.68,3.3-8.89,4.07-26.56,6.4-55.35,7.51-80.51-3.15-6.4-2.71-12.79-6.49-15.96-12.65-3.43-6.7-2.32-14.71-1.22-22.16,3.36-22.72,5.78-45.56,7.25-68.5.65-10.16-.1-21.11,1.98-31.09,1.51-7.23,6.18-9.21,12.91-10.98,11.73-3.06,23.76-4.79,35.88-5.16Z"/><path class="cls-17_customer-service-1-12" d="M341.32,338.12s8.42,62.36,4.85,81.25c-3.58,18.9-59.13,28.04-59.13,28.04,0,0,51.39,10.64,60.32,8.35,8.93-2.3,21.11-6.02,20.88-15.39-.23-9.36-9.27-83.48-9.27-83.48l-17.64-18.77Z"/><path class="cls-21_customer-service-1-12" d="M291.8,304.38c.38-1.88.87-3.73,1.46-5.55h0c1.28-4.21,2.88-8.32,2.71-12.79,0-.92-.08-1.87-.09-2.8-.07-1.69.18-3.37.75-4.96.93-2.05,2.38-3.82,4.22-5.12,4.07-3.15,15.94-9.05,18.28-1.28.37,1.37.55,2.78.52,4.2v.26c0,2.07-.27,4.2-.29,6.14-.26,4.88.62,9.75,2.56,14.24,3.44,7.17-35.95,39.19-30.13,7.68Z"/><path class="cls-18_customer-service-1-12" d="M319.78,276.11l-.12.28h0c-1.22,2.78-11.21,24.87-24.77,24.31,0,0-1.04.09-1.64-1.86h0c1.28-4.21,2.88-8.32,2.71-12.79,0-.92-.08-1.87-.09-2.8l23.79-7.11.12-.03Z"/><ellipse class="cls-22_customer-service-1-12 targetColor" cx="262.69" cy="238.8" rx="12.79" ry="15.78" style="fill: rgb(185, 255, 103);"/><ellipse class="cls-16_customer-service-1-12" cx="262.69" cy="238.8" rx="12.79" ry="15.78"/><ellipse class="cls-22_customer-service-1-12 targetColor" cx="267.59" cy="238.8" rx="12.79" ry="15.78" style="fill: rgb(185, 255, 103);"/><ellipse class="cls-14_customer-service-1-12" cx="267.59" cy="238.8" rx="12.79" ry="15.78"/><path class="cls-21_customer-service-1-12" d="M264.26,206.74l3.2,57.58s1.43,22.12,23.35,22.34c26.33.26,34.35-15.06,38.38-26.72s7.68-45.87,0-55.34c-7.68-9.47-50.51-31.69-64.93,2.14Z"/><path class="cls-20_customer-service-1-12" d="M259.57,178.76c-7.89,8.71-10.66,21.24-9.47,32.95.05,2.27.79,4.48,2.12,6.32,1.62,1.56,3.63,2.66,5.82,3.16,3.74,1.28,7.68,2.46,11.52,1.73s7.52-4.17,7.02-8.07c-1.14,2.24.13,5.12,2.15,6.58,2.15,1.32,4.58,2.12,7.09,2.33l12.9,2.1,2.25-8.7c-.8,5.96,3.37,11.44,9.33,12.25,2.4.32,4.85-.16,6.94-1.38.74,2.56,3.93,3.74,6.56,3.28,2.64-.46,4.91-2.09,7.23-3.43,6.62-3.88,14.28-5.61,21.92-4.95,2.7-17.91-9.05-36.96-26.29-42.57-4.25-1.38-8.69-2.01-13.04-3.01-18.55-4.26-38.09-16.2-54.06,1.43Z"/><ellipse class="cls-22_customer-service-1-12 targetColor" cx="341.26" cy="238.8" rx="12.79" ry="15.78" style="fill: rgb(185, 255, 103);"/><ellipse class="cls-15_customer-service-1-12" cx="341.26" cy="238.8" rx="12.79" ry="15.78"/><ellipse class="cls-22_customer-service-1-12 targetColor" cx="346.16" cy="238.8" rx="12.79" ry="15.78" style="fill: rgb(185, 255, 103);"/><ellipse class="cls-6_customer-service-1-12" cx="346.16" cy="238.8" rx="12.79" ry="15.78"/><path class="cls-22_customer-service-1-12 targetColor" d="M338.88,224.03l-6.64-34.55c-3.84-14.42-13.75-25.23-25.94-28.37l-2.81-.72,5.21-.37c13.08-.93,25.1,8.71,29.57,23.71l9.08,39.43-8.47.86Z" style="fill: rgb(185, 255, 103);"/><path class="cls-3_customer-service-1-12" d="M338.88,224.03l-6.64-34.55c-3.84-14.42-13.75-25.23-25.94-28.37l-2.81-.72,5.21-.37c13.08-.93,25.1,8.71,29.57,23.71l9.08,39.43-8.47.86Z"/><path class="cls-22_customer-service-1-12 targetColor" d="M309.54,340.28c6.23-6.58,10.81-14.52,15.35-22.38,2.75-4.8,5.58-9.8,5.96-15.35.09-.63,0-1.27-.28-1.84-.28-.39-.64-.72-1.05-.96l-8.56-5.86c-.15,5.26-3.93,9.78-8.24,12.79-4.59,3.24-17.61,6.78-14.84,13.5.68,1.79,10.93,20.91,11.66,20.1Z" style="fill: rgb(185, 255, 103);"/><path class="cls-22_customer-service-1-12 targetColor" d="M286.37,301.33c-1.77,2.55-3.02,5.42-3.7,8.44-2.15,8.51-1.74,17.43-1.28,26.19,0,.54.14,1.19.64,1.36.28.07.58.03.83-.1,1.96-1.04,3.56-2.64,4.61-4.59,3.14-4.78,6.01-9.72,8.61-14.82.31-.51.49-1.08.54-1.68-.16-.95-.64-1.82-1.36-2.47-2.85-3.45-3.03-7.68-2.5-12.04.17-1.36,1.5-3.84-.27-4.48-1.46-.54-5.45,3.26-6.13,4.18Z" style="fill: rgb(185, 255, 103);"/><path class="cls-21_customer-service-1-12" d="M373.33,386.85c-3.25,2.12-7.74.92-11.34.82-4.63-.14-6.59.26-5.57,4.93,2.56,11.66,5.31,23.03,9.79,34.16,1.64,4.46,3.88,8.67,6.67,12.53,2.16,3.06,5.25,5.34,8.8,6.51,4.59,1.28,9.58-.35,13.45-3.13s6.78-6.64,9.63-10.45c10.24-13.68,12.79-29.79,19.29-45.7,6.67-16.53,15.75-32.83,18.48-50.32.67-4.21,1.1-9.14-1.93-12.14-3.03-3.01-8.76-2.32-12.19.55-3.43,2.87-5.22,7.17-6.95,11.29-7.77,18.53-16.49,36.64-25.22,54.74-.22.66-.67,1.22-1.28,1.56-.66.18-1.37.03-1.92-.38-3.21-2.06-4.2-6.83-7.97-8.32-4.04-1.57-8.47,1.24-11.75,3.38Z"/><path class="cls-22_customer-service-1-12 targetColor" d="M392.85,394.61c-12.33,2.97-26.01,5.77-37.11-.31-1.9-.91-3.5-2.33-4.63-4.11-1.28-2.26-1.28-5.02-1.36-7.68-.54-12.01-5.12-23.5-6.21-35.48-1.65-18.86-8.88-47.93,16.17-36.86,13.84,6.12,28.47,35.51,31.44,47.83.83,3.66,6.15,35.54,1.69,36.61Z" style="fill: rgb(185, 255, 103);"/><path class="cls-4_customer-service-1-12" d="M392.85,394.61c-12.33,2.97-26.01,5.77-37.11-.31-1.9-.91-3.5-2.33-4.63-4.11-1.28-2.26-1.28-5.02-1.36-7.68-.54-12.01-5.12-23.5-6.21-35.48-1.65-18.86-8.88-47.93,16.17-36.86,13.84,6.12,28.47,35.51,31.44,47.83.83,3.66,6.15,35.54,1.69,36.61Z"/><path class="cls-21_customer-service-1-12" d="M420.35,309.68c-3.07,2.99-4.88,7.05-5.03,11.34-.24,3.97.6,7.96,0,11.89-.45,3.11-1.77,6.17-1.28,9.28.1.95.49,1.85,1.13,2.56.74.64,1.61,1.11,2.56,1.36,4.29,1.47,8.73,2.89,13.26,2.7s9.24-2.33,11.31-6.4c1.11-2.63,1.64-5.47,1.55-8.32l.29-7.78c.32-3.51.09-7.04-.69-10.48-.83-3.48-3.24-6.36-6.51-7.79-5.28-1.89-12.17-2.34-16.58,1.65Z"/><path class="cls-5_customer-service-1-12" d="M316.27,280.12c-5.15-.11-10.26-.97-15.16-2.56-1.24-.24-2.06-1.43-1.82-2.68.24-1.24,1.43-2.06,2.68-1.82.15.03.29.07.43.12,11.73,3.53,20.57,3.06,26.26-1.39,7.68-6.03,7.19-17.52,7.19-17.63-.07-1.26.89-2.33,2.14-2.4,0,0,.01,0,.02,0,1.26-.06,2.32.91,2.39,2.16,0,.58.61,14-8.96,21.47-3.93,3.17-9.02,4.73-15.16,4.73Z"/><path class="cls-9_customer-service-1-12" d="M302.3,269.43c1.31.65,2.33,1.76,2.88,3.11.51,1.94-1,3.84-2.56,5.12-1.33,1.2-2.96,2.01-4.72,2.33-2.56.31-5.04-1.07-7.18-2.56-1.2-.72-2.22-1.71-2.99-2.88-1.98-3.49.58-7.96,3.95-9.46,3.71-1.78,7.69,2.34,10.62,4.34Z"/><rect class="cls-22_customer-service-1-12 targetColor" x="153.3" y="444.11" width="202.98" height="18.72" rx="9.35" ry="9.35" style="fill: rgb(185, 255, 103);"/><rect class="cls-8_customer-service-1-12" x="153.3" y="444.11" width="202.98" height="18.72" rx="9.35" ry="9.35"/><path class="cls-22_customer-service-1-12 targetColor" d="M283.04,462.84h-141.42l-37.3-94.59c-1.68-4.27.42-9.1,4.69-10.78.95-.37,1.96-.57,2.98-.58h111.03c11,0,20.88,6.72,24.91,16.95l35.1,89Z" style="fill: rgb(185, 255, 103);"/><path class="cls-22_customer-service-1-12 targetColor" d="M275.88,462.95h-134.35l-35.42-89.87c-1.6-4.05.38-8.63,4.42-10.23.93-.37,1.92-.56,2.92-.55h105.41c10.44,0,19.82,6.38,23.66,16.1l33.36,84.56Z" style="fill: rgb(185, 255, 103);"/><path class="cls-7_customer-service-1-12" d="M275.88,462.95h-134.35l-35.42-89.87c-1.6-4.05.38-8.63,4.42-10.23.93-.37,1.92-.56,2.92-.55h105.41c10.44,0,19.82,6.38,23.66,16.1l33.36,84.56Z"/></g></svg>