<svg width="120" height="120" viewBox="0 0 120 120" fill="none" xmlns="http://www.w3.org/2000/svg">
<circle cx="60" cy="60" r="59.5" fill="#F8F9FA" stroke="#333333"/>
<path d="M32.5933 32.1833C31.99 33.3833 31.6933 34.87 31.1 37.8366L29.1067 47.8033C28.8242 49.1622 28.822 50.5645 29.1002 51.9243C29.3785 53.2841 29.9314 54.5728 30.725 55.7115C31.5186 56.8502 32.5362 57.8149 33.7156 58.5467C34.895 59.2784 36.2114 59.7618 37.5841 59.9671C38.9568 60.1725 40.3569 60.0955 41.6989 59.7409C43.0408 59.3864 44.2962 58.7616 45.3883 57.905C46.4804 57.0484 47.3862 55.9779 48.0502 54.7591C48.7142 53.5403 49.1225 52.1987 49.25 50.8166L49.4833 48.5166C49.357 49.9794 49.5372 51.4525 50.0124 52.8417C50.4876 54.2309 51.2474 55.5057 52.2432 56.5847C53.239 57.6636 54.4489 58.523 55.7956 59.1078C57.1423 59.6927 58.5963 59.9902 60.0645 59.9814C61.5327 59.9725 62.9829 59.6575 64.3225 59.0565C65.662 58.4554 66.8615 57.5815 67.8442 56.4907C68.8269 55.3998 69.5713 54.1159 70.0297 52.7211C70.4882 51.3263 70.6506 49.8511 70.5067 48.39L70.75 50.8166C70.8775 52.1987 71.2858 53.5403 71.9498 54.7591C72.6138 55.9779 73.5196 57.0484 74.6117 57.905C75.7038 58.7616 76.9592 59.3864 78.3011 59.7409C79.6431 60.0955 81.0432 60.1725 82.4159 59.9671C83.7886 59.7618 85.105 59.2784 86.2844 58.5467C87.4638 57.8149 88.4814 56.8502 89.275 55.7115C90.0687 54.5728 90.6215 53.2841 90.8998 51.9243C91.178 50.5645 91.1758 49.1622 90.8933 47.8033L88.9 37.8366C88.3067 34.87 88.01 33.3866 87.4067 32.1833C86.778 30.9301 85.8929 29.8231 84.8087 28.9341C83.7245 28.0452 82.4654 27.3941 81.1133 27.0233C79.8133 26.6666 78.3 26.6666 75.2733 26.6666H44.7267C41.7 26.6666 40.1867 26.6666 38.8867 27.0233C37.5346 27.3941 36.2755 28.0452 35.1913 28.9341C34.1071 29.8231 33.222 30.9301 32.5933 32.1833ZM80.8967 65C83.5011 65.0065 86.0629 64.3394 88.3333 63.0633V66.6666C88.3333 79.2366 88.3333 85.5233 84.4267 89.4266C81.2833 92.5733 76.6 93.1833 68.3333 93.3033V81.6666C68.3333 78.55 68.3333 76.9933 67.6633 75.8333C67.2245 75.0733 66.5934 74.4421 65.8333 74.0033C64.6733 73.3333 63.1167 73.3333 60 73.3333C56.8833 73.3333 55.3267 73.3333 54.1667 74.0033C53.4066 74.4421 52.7755 75.0733 52.3367 75.8333C51.6667 76.9933 51.6667 78.55 51.6667 81.6666V93.3033C43.4 93.1833 38.7167 92.57 35.5733 89.4266C31.6667 85.5233 31.6667 79.2366 31.6667 66.6666V63.0633C33.938 64.3399 36.5011 65.0071 39.1067 65C42.9588 65.0024 46.6675 63.5389 49.48 60.9066C52.3457 63.5477 56.1029 65.0096 60 65C63.8971 65.0096 67.6543 63.5477 70.52 60.9066C73.3325 63.5389 77.0445 65.0024 80.8967 65Z" fill="#007BFF"/>
</svg>
