<svg width="35" height="35" viewBox="0 0 35 35" fill="none" xmlns="http://www.w3.org/2000/svg">
<path d="M27.7812 7.16033C26.444 5.81007 24.8515 4.73945 23.0963 4.01086C21.3412 3.28227 19.4586 2.91029 17.5583 2.91658C9.59581 2.91658 3.10623 9.40617 3.10623 17.3687C3.10623 19.9207 3.77706 22.3999 5.03123 24.5874L2.98956 32.0833L10.6458 30.0708C12.7604 31.2228 15.1375 31.8353 17.5583 31.8353C25.5208 31.8353 32.0104 25.3458 32.0104 17.3833C32.0104 13.5187 30.5083 9.88742 27.7812 7.16033ZM17.5583 29.3853C15.4 29.3853 13.2854 28.802 11.4333 27.7083L10.9958 27.4457L6.44581 28.6416L7.65623 24.2083L7.36456 23.7562C6.16515 21.8415 5.52841 19.628 5.52706 17.3687C5.52706 10.7478 10.9229 5.352 17.5437 5.352C20.7521 5.352 23.7708 6.60617 26.0312 8.88117C27.1507 9.99513 28.0378 11.3203 28.6411 12.7798C29.2444 14.2392 29.5519 15.804 29.5458 17.3833C29.575 24.0041 24.1791 29.3853 17.5583 29.3853ZM24.15 20.402C23.7854 20.227 22.0062 19.352 21.6854 19.2208C21.35 19.1041 21.1166 19.0457 20.8687 19.3958C20.6208 19.7603 19.9354 20.577 19.7312 20.8103C19.5271 21.0583 19.3083 21.0874 18.9437 20.8978C18.5791 20.7228 17.4125 20.3291 16.0416 19.1041C14.9625 18.1416 14.2479 16.9603 14.0291 16.5958C13.825 16.2312 14 16.0416 14.1896 15.852C14.35 15.6916 14.5541 15.4291 14.7291 15.2249C14.9041 15.0207 14.9771 14.8603 15.0937 14.627C15.2104 14.3791 15.1521 14.1749 15.0646 13.9999C14.9771 13.8249 14.2479 12.0457 13.9562 11.3166C13.6646 10.6166 13.3583 10.7041 13.1396 10.6895H12.4396C12.1916 10.6895 11.8125 10.777 11.4771 11.1416C11.1562 11.5062 10.2229 12.3812 10.2229 14.1603C10.2229 15.9395 11.5208 17.6603 11.6958 17.8937C11.8708 18.1416 14.2479 21.7874 17.8646 23.3478C18.725 23.727 19.3958 23.9458 19.9208 24.1062C20.7812 24.3833 21.5687 24.3395 22.1958 24.252C22.8958 24.1499 24.3396 23.377 24.6312 22.5312C24.9375 21.6853 24.9375 20.9708 24.8354 20.8103C24.7333 20.6499 24.5146 20.577 24.15 20.402Z" fill="white"/>
</svg>
