<svg width="124" height="24" viewBox="0 0 124 24" fill="none" xmlns="http://www.w3.org/2000/svg">
<path fill-rule="evenodd" clip-rule="evenodd" d="M12.908 1.58103C12.828 1.40757 12.6999 1.26066 12.539 1.15769C12.3781 1.05472 12.191 1 12 1C11.809 1 11.6219 1.05472 11.461 1.15769C11.3001 1.26066 11.1721 1.40757 11.092 1.58103L8.22201 7.80103L1.42101 8.60803C1.23126 8.63043 1.0519 8.70673 0.904159 8.82789C0.756417 8.94905 0.646478 9.10999 0.587352 9.29168C0.528227 9.47337 0.522391 9.6682 0.570534 9.8531C0.618678 10.038 0.718786 10.2052 0.85901 10.335L5.88901 14.985L4.55401 21.705C4.51693 21.8924 4.53426 22.0864 4.60396 22.2642C4.67365 22.442 4.79279 22.5961 4.9473 22.7083C5.1018 22.8205 5.28521 22.8862 5.47583 22.8975C5.66646 22.9087 5.85633 22.8652 6.02301 22.772L12 19.426L17.977 22.772C18.1438 22.8656 18.3339 22.9094 18.5248 22.8983C18.7157 22.8871 18.8995 22.8214 19.0542 22.709C19.2089 22.5966 19.3281 22.4422 19.3978 22.264C19.4674 22.0859 19.4845 21.8916 19.447 21.704L18.112 14.986L23.141 10.335C23.2812 10.2052 23.3813 10.038 23.4295 9.8531C23.4776 9.6682 23.4718 9.47337 23.4127 9.29168C23.3535 9.10999 23.2436 8.94905 23.0959 8.82789C22.9481 8.70673 22.7688 8.63043 22.579 8.60803L15.777 7.80003L12.908 1.58103Z" fill="#FFC700"/>
<path fill-rule="evenodd" clip-rule="evenodd" d="M37.908 1.58103C37.828 1.40757 37.6999 1.26066 37.539 1.15769C37.3781 1.05472 37.191 1 37 1C36.809 1 36.6219 1.05472 36.461 1.15769C36.3001 1.26066 36.1721 1.40757 36.092 1.58103L33.222 7.80103L26.421 8.60803C26.2313 8.63043 26.0519 8.70673 25.9042 8.82789C25.7564 8.94905 25.6465 9.10999 25.5874 9.29168C25.5282 9.47337 25.5224 9.6682 25.5705 9.8531C25.6187 10.038 25.7188 10.2052 25.859 10.335L30.889 14.985L29.554 21.705C29.5169 21.8924 29.5343 22.0864 29.604 22.2642C29.6736 22.442 29.7928 22.5961 29.9473 22.7083C30.1018 22.8205 30.2852 22.8862 30.4758 22.8975C30.6665 22.9087 30.8563 22.8652 31.023 22.772L37 19.426L42.977 22.772C43.1438 22.8656 43.3339 22.9094 43.5248 22.8983C43.7157 22.8871 43.8995 22.8214 44.0542 22.709C44.2089 22.5966 44.3281 22.4422 44.3978 22.264C44.4674 22.0859 44.4845 21.8916 44.447 21.704L43.112 14.986L48.141 10.335C48.2812 10.2052 48.3813 10.038 48.4295 9.8531C48.4776 9.6682 48.4718 9.47337 48.4127 9.29168C48.3535 9.10999 48.2436 8.94905 48.0959 8.82789C47.9481 8.70673 47.7688 8.63043 47.579 8.60803L40.777 7.80003L37.908 1.58103Z" fill="#FFC700"/>
<path fill-rule="evenodd" clip-rule="evenodd" d="M62.908 1.58103C62.828 1.40757 62.6999 1.26066 62.539 1.15769C62.3781 1.05472 62.191 1 62 1C61.809 1 61.6219 1.05472 61.461 1.15769C61.3001 1.26066 61.1721 1.40757 61.092 1.58103L58.222 7.80103L51.421 8.60803C51.2313 8.63043 51.0519 8.70673 50.9042 8.82789C50.7564 8.94905 50.6465 9.10999 50.5874 9.29168C50.5282 9.47337 50.5224 9.6682 50.5705 9.8531C50.6187 10.038 50.7188 10.2052 50.859 10.335L55.889 14.985L54.554 21.705C54.5169 21.8924 54.5343 22.0864 54.604 22.2642C54.6736 22.442 54.7928 22.5961 54.9473 22.7083C55.1018 22.8205 55.2852 22.8862 55.4758 22.8975C55.6665 22.9087 55.8563 22.8652 56.023 22.772L62 19.426L67.977 22.772C68.1438 22.8656 68.3339 22.9094 68.5248 22.8983C68.7157 22.8871 68.8995 22.8214 69.0542 22.709C69.2089 22.5966 69.3281 22.4422 69.3978 22.264C69.4674 22.0859 69.4845 21.8916 69.447 21.704L68.112 14.986L73.141 10.335C73.2812 10.2052 73.3813 10.038 73.4295 9.8531C73.4776 9.6682 73.4718 9.47337 73.4127 9.29168C73.3535 9.10999 73.2436 8.94905 73.0959 8.82789C72.9481 8.70673 72.7688 8.63043 72.579 8.60803L65.777 7.80003L62.908 1.58103Z" fill="#FFC700"/>
<path fill-rule="evenodd" clip-rule="evenodd" d="M87.908 1.58103C87.828 1.40757 87.6999 1.26066 87.539 1.15769C87.3781 1.05472 87.191 1 87 1C86.809 1 86.6219 1.05472 86.461 1.15769C86.3001 1.26066 86.1721 1.40757 86.092 1.58103L83.222 7.80103L76.421 8.60803C76.2313 8.63043 76.0519 8.70673 75.9042 8.82789C75.7564 8.94905 75.6465 9.10999 75.5874 9.29168C75.5282 9.47337 75.5224 9.6682 75.5705 9.8531C75.6187 10.038 75.7188 10.2052 75.859 10.335L80.889 14.985L79.554 21.705C79.5169 21.8924 79.5343 22.0864 79.604 22.2642C79.6736 22.442 79.7928 22.5961 79.9473 22.7083C80.1018 22.8205 80.2852 22.8862 80.4758 22.8975C80.6665 22.9087 80.8563 22.8652 81.023 22.772L87 19.426L92.977 22.772C93.1438 22.8656 93.3339 22.9094 93.5248 22.8983C93.7157 22.8871 93.8995 22.8214 94.0542 22.709C94.2089 22.5966 94.3281 22.4422 94.3978 22.264C94.4674 22.0859 94.4845 21.8916 94.447 21.704L93.112 14.986L98.141 10.335C98.2812 10.2052 98.3813 10.038 98.4295 9.8531C98.4776 9.6682 98.4718 9.47337 98.4127 9.29168C98.3535 9.10999 98.2436 8.94905 98.0959 8.82789C97.9481 8.70673 97.7688 8.63043 97.579 8.60803L90.777 7.80003L87.908 1.58103Z" fill="#FFC700"/>
<path d="M112 2L115.104 8.728L122.462 9.601L117.022 14.631L118.466 21.899L112 18.28L105.534 21.9L106.978 14.632L101.538 9.6L108.897 8.727L112 2Z" stroke="#FFC700" stroke-width="2" stroke-linejoin="round"/>
</svg>
